<?xml version="1.0" encoding="utf-8"?>
<!-- Generator: Adobe Illustrator 27.5.0, SVG Export Plug-In . SVG Version: 6.00 Build 0)  -->
<svg version="1.1" xmlns="http://www.w3.org/2000/svg" xmlns:xlink="http://www.w3.org/1999/xlink" x="0px" y="0px"
	 viewBox="0 0 800 800" style="enable-background:new 0 0 800 800;" xml:space="preserve">
<g id="background">
</g>
<g id="objects">
	<g>
		<g>
			<path style="fill:#414042;" d="M331.741,104.237c-0.612-1.024-0.95-1.587-1.871-1.587c-0.296,0-0.622,0.065-1.072,0.153
				c-1.394,0.281-1.423,0.289-3.08,0.838c-0.361,0.121-0.592,0.134-0.734,0.134c-0.11,0-0.205-0.01-0.29-0.017
				c-0.11-0.008-0.211-0.016-0.306-0.016c-0.764,0-1.226,0.47-1.767,1.278l-0.042,0.063l-0.029,0.072
				c-0.027,0.068-0.654,1.691,0.297,3.588c0.756,1.509,2.46,1.744,4.107,1.973c0.601,0.084,1.224,0.169,1.809,0.315
				c0.384,0.096,0.708,0.143,0.991,0.143c1.398,0,1.673-1.091,1.893-1.968c0.1-0.395,0.213-0.842,0.416-1.316
				c0.725-1.697,0.73-2.073,0.042-3.091C332.002,104.648,331.88,104.468,331.741,104.237z"/>
		</g>
		<g>
			<path style="fill:#414042;" d="M336.868,107.041l-1.189,1.785c-0.671,1.007-0.791,1.138-1.142,1.525
				c-0.21,0.23-0.493,0.541-0.99,1.133c-0.625,0.752-1.397,0.824-2.374,0.918c-0.712,0.066-1.516,0.143-2.289,0.529l-0.658,0.329
				l0.333,0.655c0.065,0.126,0.447,0.789,1.688,1.413c0.341,0.171,0.734,0.258,1.168,0.258c0.889,0,1.84-0.349,2.847-0.718
				c0.296-0.108,0.596-0.217,0.894-0.319c2.07-0.69,1.912-4.592,1.86-5.368L336.868,107.041z"/>
		</g>
		<g>
			<path style="fill:#414042;" d="M559.191,118.824c0.1,0.074,0.178,0.133,0.272,0.248c0.305,0.382,0.785,0.574,1.425,0.574
				c0.742,0,1.577-0.258,1.995-0.425l0.441,0.108l0.289-0.358l0.257-0.315c0.802-0.994,1.133-1.405,2.119-1.994
				c2.258-1.351,3.085-2.676,2.454-3.941c-0.099-0.2-0.206-0.475-0.328-0.783c-0.549-1.388-1.3-3.288-2.811-3.288
				c-0.279,0-0.561,0.071-0.837,0.208c-0.597,0.301-1.334,0.478-2.046,0.649c-1.277,0.308-2.598,0.625-3.228,1.708
				c-0.41,0.698-0.452,1.583-0.131,2.705c0.21,0.748,0.131,1.257-0.272,2.742C558.498,117.738,558.485,118.304,559.191,118.824z"/>
		</g>
		<g>
			<path style="fill:#414042;" d="M327.676,127.312c-0.213-0.253-0.406-0.489-0.577-0.702c-0.797-0.973-1.16-1.419-1.72-1.419
				c-0.978,0-0.978,1.21-0.978,1.728c0,0.542-0.138,1.031-0.259,1.464c-0.249,0.882-0.625,2.215,1.334,2.773l0.506,0.147
				c0.591,0.175,1.017,0.302,1.409,0.302c1.124,0,1.468-1.049,1.697-1.744c0.303-0.904,0.083-1.49-0.156-1.823
				C328.58,127.552,328.039,127.376,327.676,127.312z"/>
		</g>
		<g>
			<path style="fill:#414042;" d="M322.158,105.189l-1.575,1.307c-0.442,0.368-0.843,0.552-1.195,0.716
				c-1.057,0.486-1.733,0.972-1.514,3.184c0.05,0.488,0.08,0.924,0.11,1.314c0.13,1.825,0.216,3.033,1.921,3.889
				c0.964,0.48,1.725,0.862,2.378,0.862c0.423,0,1.403-0.173,1.403-1.784c0-0.266,0.008-0.471,0.013-0.638
				c0.038-1.011-0.089-1.185-0.907-2.316l-0.332-0.46c-1.152-1.617-0.698-4.039-0.693-4.062L322.158,105.189z"/>
		</g>
		<g>
			<path style="fill:#414042;" d="M331.133,124.3c0.39,0.913,0.795,1.856,1.979,1.856c0.284,0,0.596-0.059,0.957-0.179
				c0.169-0.057,0.346-0.084,0.539-0.084c0.207,0,0.416,0.031,0.62,0.061c0.223,0.034,0.432,0.062,0.618,0.062
				c1.485,0,1.643-1.605,1.711-2.291c0.073-0.736,0.188-1.393,0.288-1.971c0.223-1.271,0.37-2.112-0.131-2.709
				c-0.265-0.315-0.651-0.473-1.152-0.473c-1.394,0-2.963,1.504-3.595,2.178c-0.965,0.007-1.91,0.079-2.355,0.801
				c-0.451,0.732-0.015,1.598,0.128,1.882C330.895,123.745,331.02,124.037,331.133,124.3z"/>
		</g>
		<g>
			<path style="fill:#414042;" d="M331.271,118.639c-0.026-0.643-0.473-0.975-0.562-1.036c-0.641-0.475-1.749-1.002-2.489-1.002
				c-0.608,0-0.853,0.361-0.93,0.516c-0.186,0.369-0.102,0.792,0.248,1.262c0.213,0.281,0.306,0.708,0.39,1.086
				c0.118,0.535,0.315,1.432,1.191,1.432c0.337,0,0.673-0.15,1.091-0.487C330.936,119.831,331.296,119.235,331.271,118.639z"/>
		</g>
		<g>
			<path style="fill:#414042;" d="M649.939,365.496c-1.08-2.179-3.255-5.986-2.169-8.165c1.089-2.173,0-5.709-2.721-4.894
				c-2.721,0.815-4.9-1.091-6.532-1.904c-0.976-0.488-2.428-1.649-3.446-2.508l0.782-0.263l-0.854-0.759
				c0.574-0.516,1.397-1.312,1.928-2.02c1.031-1.363,0.961-1.925,0.107-4.474c-0.22-0.664-0.336-1.282-0.442-1.828
				c-0.268-1.426-0.522-2.775-2.521-3.274c-1.689-0.423-1.916-1.349-2.413-3.374l-0.044-0.174c-0.369-1.478-1.175-2.3-1.948-3.096
				c-0.511-0.52-0.99-1.016-1.391-1.714c-0.816-1.426-0.647-1.594,0.969-3.205c1.519-1.517,3.804-4.798,3.47-7.143
				c-0.069-0.488-0.154-0.905-0.23-1.284c-0.226-1.091-0.34-1.638,0.162-2.643c0.107-0.224,0.256-0.484,0.413-0.77
				c1.06-1.93,2.841-5.162,0.455-6.943c-2.671-2.008-3.625-3.589-2.831-4.702c0.866-1.221,1.081-1.832,0.819-2.339
				c-0.149-0.291-0.442-0.463-0.778-0.463c-0.009,0-0.015,0-0.021,0c-0.252-0.091-0.642-0.3-0.734-0.571l-0.006-0.019
				c0.049-0.044,0.123-0.1,0.18-0.146c0.235-0.179,0.551-0.427,0.824-0.833c0.485-0.728,0.296-1.821-0.044-2.605
				c-0.485-1.123-1.359-1.892-2.343-2.057c-0.229-0.039-0.494-0.079-0.777-0.121c-1.004-0.147-3.667-0.543-3.798-1.209
				c-0.125-0.619-0.389-1.258-0.665-1.935c-0.38-0.928-0.812-1.979-0.964-3.179c-0.136-1.101-0.668-1.796-1.098-2.355
				c-0.539-0.699-0.758-0.99-0.33-1.853c0.763-1.527,1.221-2.033,1.968-2.872c0.273-0.301,0.578-0.64,0.929-1.068
				c1.361-1.637,1.127-2.536,0.636-3.868c-0.07-0.194-0.153-0.403-0.227-0.637c-0.468-1.398-0.221-2.953,0.558-3.539
				c0.345-0.255,0.537-0.634,0.543-1.065c0.026-1.334-1.898-3.15-3.519-4.439c-0.568-0.458-1.53-0.824-2.644-1.25
				c-1.794-0.686-4.034-1.54-4.787-2.892c-0.434-0.786-0.696-1.486-0.924-2.104c-0.481-1.29-0.89-2.403-2.502-2.865
				c-0.947-0.271-1.51-0.69-2.223-1.22c-0.596-0.443-1.27-0.947-2.283-1.452c-1.986-0.993-3.533-3.029-3.55-3.05l-0.237-0.313
				l-0.391,0.024c-0.011,0-0.137,0.008-0.334,0.008c-1.26,0-2.289-0.267-2.619-0.68c-0.085-0.104-0.172-0.271-0.095-0.619
				c0.182-0.823,0.431-1.411,0.65-1.931c0.415-0.985,0.774-1.837,0.105-3.177c-1.217-2.444-0.624-3.257,0.027-3.691
				c2.857-1.908,4.742-3.424,5.605-4.506c0.145-0.181,0.316-0.39,0.502-0.615c1.683-2.045,3.192-4.007,3.192-5.557
				c0-1.65-0.276-5.509-0.556-7.19c-0.218-1.319-0.087-1.937,1.206-3.496c0.839-1.006,1.812-2.504,1.67-3.923
				c-0.071-0.688-0.403-1.288-0.963-1.734c-1.122-0.898-1.358-2.258-1.358-3.24v-0.729h-0.089c-0.349-1.934-1.655-6.191-2.21-7.022
				c-0.237-0.354-0.637-1.596-0.99-2.689c-0.36-1.117-0.733-2.274-1.121-3.176c-0.175-0.41-0.389-0.841-0.609-1.288
				c-0.762-1.554-1.625-3.313-1.261-4.776c0.476-1.885-0.561-4.712-1.247-6.582c-0.178-0.484-0.332-0.901-0.385-1.117l-0.014-0.06
				l-0.026-0.056c-0.01-0.025-1.035-2.358-1.167-4.115c-0.074-1.138-0.487-1.902-0.943-2.645l-0.214-0.349h-0.408h-0.049
				l-0.019,0.003c-0.25-0.044-0.455-0.063-0.652-0.063c-0.864,0-1.568,0.371-2.037,1.074l-0.156,0.236
				c-0.389,0.601-0.493,0.761-1.417,0.947c-0.406,0.08-0.831,0.122-1.264,0.122c-0.884,0-1.842-0.171-2.852-0.508
				c-0.434-0.143-0.876-0.27-1.316-0.393c-1.153-0.326-2.242-0.635-2.921-1.232c-0.622-0.541-1.269-0.845-1.893-1.138
				c-0.585-0.277-1.189-0.561-1.81-1.057c-0.675-0.539-0.813-1.098-0.832-1.392c0.031-0.028,0.061-0.054,0.091-0.08
				c0.389-0.345,0.403-0.358,1.509-0.358l0.54,0.005l0.4,0.004c1.082,0,1.679-0.144,2.57-1.035c0.418-0.417,0.638-0.823,0.814-1.152
				c0.275-0.506,0.34-0.624,0.912-0.674c0.715-0.066,1.351-0.066,2.026-0.066c0.689,0,1.47,0,2.448-0.072
				c0.539-0.037,1.273-0.059,2.187-0.059c0.489,0,0.979,0.006,1.421,0.014l0.783,0.014l-0.041-0.784l-0.269-4.849l-0.014-0.262
				l-0.179-0.195c-0.134-0.145-3.326-3.594-4.453-4.439c-0.404-0.304-0.942-0.874-1.514-1.474c-0.869-0.915-1.852-1.95-2.869-2.63
				c-0.374-0.248-0.703-0.498-1.022-0.74c-1.115-0.844-2.168-1.641-4.409-2.091c-0.554-0.111-0.997-0.178-1.365-0.233
				c-1.317-0.198-1.395-0.21-2.529-1.903c-0.636-0.955-1.11-1.934-1.491-2.721c-0.658-1.355-1.092-2.252-1.975-2.252
				c-0.12,0-0.241,0.021-0.358,0.06c-0.913,0.303-1.453,1.896-1.758,3.347c-0.205-0.036-0.572-0.161-1.141-0.541
				c-0.815-0.541-1.529-0.793-2.246-0.793c-1.161,0-2.158,0.697-2.98,1.379c-1.384,1.157-3.779,1.467-4.975,1.467
				c-0.666,0-0.973,0.34-1.096,0.544c-0.38,0.619-0.065,1.41,0.359,2.259c-0.372-0.241-0.864-0.626-1.468-1.227
				c-1.96-1.959-2.23-3.132-2.23-4.109c0-0.308-0.112-1.315-1.562-1.315c-0.245,0-0.518,0.026-0.791,0.053
				c-0.222,0.023-0.442,0.046-0.64,0.046c-0.159,0-0.221-0.018-0.23-0.021c-0.368-0.17-1.07-1.7-1.369-2.351
				c-0.139-0.306-0.269-0.588-0.386-0.822c-0.007-0.011-0.011-0.021-0.018-0.033c0.203,0.111,0.404,0.238,0.607,0.365
				c0.687,0.429,1.397,0.873,2.215,0.873c0.332,0,0.651-0.076,0.948-0.224c0.94-0.47,2.07-1.76,2.26-2.93
				c0.094-0.595-0.061-1.13-0.438-1.507c-0.235-0.236-0.375-0.404-0.465-0.553l-0.443-0.728c0.017-0.007,0.031-0.013,0.046-0.019
				l0.292-0.121l0.112-0.296l0.046-0.125l0.033-0.092c0.119-0.299,0.203-0.551,0.275-0.769c0.218-0.666,0.257-0.786,1.273-1.294
				c0.515-0.256,0.874-0.462,1.154-0.622c0.465-0.265,0.622-0.355,0.94-0.381c-0.045,0.131-0.092,0.279-0.134,0.444
				c-0.046,0.186-0.141,0.57,0.111,0.892l0.219,0.279l0.378,0.01c0.446,0,0.66-0.279,1.227-1.022
				c0.403-0.528,0.953-1.249,1.389-1.578c0.037-0.03,0.068-0.05,0.095-0.065c0.037,0.045,0.079,0.103,0.112,0.146
				c0.212,0.285,0.505,0.673,1.029,0.847c0.135,0.045,0.28,0.069,0.433,0.069c0.71,0,1.523-0.537,2.102-1.01
				c0.259,0.441,0.442,0.862,0.459,1.072c-1.076,0.842-0.584,2.796-0.47,3.188l0.082,0.288l0.263,0.148
				c0.144,0.081,1.44,0.786,2.416,0.786c0.702,0,1.213-0.364,1.367-0.973c0.295-1.197,0.295-2.66,0.008-3.604
				c0.002-0.002,0.005-0.004,0.007-0.005c0.256-0.182,0.687-0.485,1.017-1.146c0.717-1.434-0.812-2.574-2.162-3.579
				c-0.256-0.192-0.514-0.385-0.754-0.576c-0.639-0.513-1.316-0.943-2.065-1.309l-0.268-0.13l-0.281,0.094
				c-0.301,0.099-0.474,0.12-0.568,0.12c-0.123,0-0.167,0-0.457-0.485l-0.155-0.258l-0.293-0.075
				c-0.269-0.069-0.54-0.288-0.826-0.671l-0.098-0.129l-0.142-0.077c-0.087-0.047-0.143-0.076-0.208-0.118
				c-0.34-0.195-0.647-0.279-0.959-0.279c-0.59,0-1.04,0.294-1.476,0.58c-0.254,0.166-0.516,0.338-0.808,0.447
				c-0.108,0.042-0.208,0.063-0.29,0.063c-0.202,0-0.394-0.141-0.741-0.413c-0.225-0.175-0.48-0.373-0.796-0.553
				c-0.477-0.27-0.466-0.85-0.322-2.204l0.006-0.078c0.143-1.433-0.424-1.848-1.319-2.03c-0.121-0.025-0.256-0.051-0.402-0.099
				c-0.617-0.209-0.959-0.323-1.289-1.66c-0.185-0.736-0.415-1.646-1.291-1.646c-0.175,0-0.323,0.043-0.452,0.079
				c-0.113,0.034-0.21,0.06-0.326,0.06c-0.294,0-0.664-0.579-0.769-1.652c-0.069-0.678-0.174-1.7-1.194-1.7
				c-0.229,0-0.458,0.059-0.748,0.135c-0.127,0.034-0.275,0.071-0.442,0.111c-0.299,0.064-0.621,0.15-0.875,0.326
				c0.284-0.22,0.542-0.478,0.78-0.716c0.278-0.278,0.597-0.593,0.8-0.673c0.217-0.089,0.654-0.268,2.248-2.298l0.159-0.202
				l-0.004-0.259c-0.012-0.822,0.278-1.47,0.971-2.162c1.347-1.354,1.026-3.04,1.012-3.11l-0.104-0.515l-0.522-0.065
				c-0.016-0.002-0.4-0.05-0.962-0.05c-0.884,0-2.166,0.115-3.264,0.662c-0.653,0.327-1.314,0.564-1.953,0.796
				c-0.922,0.332-1.794,0.647-2.509,1.181c-1.247,0.934-1.835,2.888-1.896,3.106l-0.396,1.378l1.346-0.492l2.281-0.833
				c0.069,0.483,0.041,1.258-0.463,2.265c-0.394,0.785-0.649,1.459-0.854,2.002l-0.314,0.834l-0.202,0.226
				c-0.055,0.061-0.082,0.069-0.151,0.069c-0.192,0-0.391-0.1-0.603-0.204c-0.249-0.123-0.531-0.264-0.866-0.264
				c-0.972,0-1.278,1.085-1.411,1.548c-0.273,0.944-0.3,1.915-0.324,2.77l-0.004,0.107l-0.022,0.427
				c-0.015,0.288-0.057,1.052-0.281,1.274c-0.779,0.78-1.574,1.774-1.574,3.24c0,1.142,0.681,2,1.695,2.136l0.655,0.088l0.048-0.203
				l0.098,0.03c0.018,0.012,0.116,0.104,0.189,0.171c0.386,0.355,1.033,0.951,2.4,0.951c0.706,0,1.642,1.171,1.642,2.053
				c0,0.214,0,0.57-0.829,0.57c-2.673,0-4.085,0.214-4.42,0.272h-0.6l-0.114,0.666c-0.056,0.609-0.083,1.12-0.083,1.559
				c0,1.673,1.132,2.307,2.042,2.817l0.233,0.132c0.157,0.089,0.314,0.175,0.47,0.262c0.754,0.411,1.406,0.77,1.88,1.432
				c0.545,0.765,1.091,1.149,1.784,1.635c0.279,0.196,0.59,0.414,0.953,0.695c0.406,0.316,0.802,0.472,1.208,0.472
				c0.942,0,1.516-0.816,2.071-1.605c0.144-0.205,0.295-0.42,0.457-0.629c0.117-0.15,0.201-0.244,0.256-0.301
				c0.185,0.079,0.468,0.189,0.866,0.189c0.092,0,0.19-0.006,0.297-0.019c0.462-0.056,1.127-0.261,2.081-0.638l-0.442,0.513
				l-0.129,0.153l-0.109,0.133c-1.307,1.416-3.174,2.219-3.705,2.349l-1.25,0.307c-0.62-0.256-1.351-0.313-2.072-0.323l-0.001-0.155
				c-0.952-0.098-1.745-0.231-2.122-0.357c-1.834-0.61-3.062-1.358-3.373-2.055c-0.358-0.809-1.288-2.808-2.138-3.835
				c-0.108-0.204-0.069-1.211,0.539-3.008l0.132-0.391l-0.266-0.315c-0.222-0.654-0.97-0.895-1.837-1.174
				c-1.413-0.457-1.812-0.716-1.699-1.112c0.223-0.781,0.007-1.294-0.214-1.587c-0.382-0.51-1.065-0.771-2.026-0.776l-0.362-0.001
				l-0.116,0.151l-0.706-0.31c-0.596-0.244-1.255-0.367-1.95-0.367c-0.284,0-0.576,0.021-0.869,0.063
				c-1.897,0.271-5.908,0.538-7.517,0.538c-0.498,0-1.227,0.047-2.069,0.099c-1.055,0.065-2.252,0.141-3.251,0.141
				c-1.272,0-1.625-0.127-1.704-0.165c-0.272-0.136-0.6-0.651-0.865-1.062c-0.462-0.722-0.988-1.542-1.866-1.542
				c-0.217,0-0.43,0.052-0.637,0.156c-1.244,0.624-2.195,2.058-2.822,4.261c-0.418,1.455-0.822,2.037-1.557,3.097
				c-0.161,0.233-0.337,0.486-0.529,0.773c-1.194,1.803-2.293,3.468-2.293,5.035c0,0.751-0.481,1.127-1.401,1.783
				c-0.162,0.115-0.326,0.232-0.491,0.354c-0.798,0.603-2.599,2.059-4.046,3.229l-1.413,1.138c-1.517,1.216-2.662,3.545-2.952,4.42
				l-0.032,0.1c-0.154,0.477-0.182,0.563-1.815,0.765c-0.562,0.07-1.168,0.083-1.811,0.097c-1.777,0.038-3.789,0.079-5.374,1.431
				c-0.431,0.369-0.806,0.724-1.148,1.047c-0.939,0.888-1.457,1.349-2.034,1.349c-0.143,0-0.296-0.028-0.467-0.084
				c-0.458-0.152-0.783-0.417-1.161-0.723c-0.607-0.494-1.296-1.053-2.517-1.054c-0.332,0-0.679,0.041-1.063,0.126
				c-0.856,0.189-1.405,0.201-1.847,0.207c-0.895,0.017-1.477,0.085-2.155,1.22c-0.277,0.458-0.683,0.825-1.076,1.18
				c-0.496,0.445-0.962,0.867-1.148,1.454l-0.082,0.26l0.108,0.251c0.22,0.509,0.432,1.258,0.299,2.09
				c-0.181-0.575-0.718-0.909-1.23-1.163c-0.332-0.165-0.593-0.238-0.849-0.238c-0.536,0-0.858,0.321-1.142,0.606
				c-0.115,0.114-0.253,0.251-0.436,0.405c-0.929,0.774-0.874,1.649-0.828,2.352c0.011,0.164,0.022,0.337,0.022,0.52v0.301
				l0.212,0.214l0.407,0.407l0.397,0.4l0.488-0.282c0.07-0.043,0.361-0.214,0.733-0.461c-0.178,0.201-0.349,0.424-0.503,0.683
				l-0.128,0.214c-0.137,0.228-0.278,0.464-0.345,0.538c-0.004-0.001-0.012-0.003-0.027-0.003c-0.029,0-0.075,0.002-0.143,0.002
				c-0.103,0-0.221-0.004-0.363-0.008c-0.219-0.005-0.484-0.014-0.817-0.014c-1.937,0-3.607,0-5.185,1.896
				c-0.821,0.986-1.537,2.385-1.083,3.351c0.225,0.484,0.702,0.761,1.305,0.761c0.335,0,0.709-0.08,1.144-0.242
				c1.122-0.421,1.407-0.565,1.561-0.64c0.048-0.025,0.061-0.032,0.268-0.084c0,0.002-0.001,0.007-0.001,0.011
				c-0.04,0.4-0.098,0.945-0.098,1.666c0,0.222,0.004,0.446,0.007,0.666c0.009,0.73,0.024,1.953-0.194,2.165
				c-0.082-0.009-0.273-0.029-0.657-0.223c-1.039-0.516-1.755-0.969-2.387-1.368c-0.681-0.431-1.269-0.803-2.023-1.105l-1.362-0.542
				l-0.525-0.21l-0.334,0.458c-0.402,0.548-1.191,1.306-1.633,1.306c-0.127,0-0.258-0.13-0.387-0.39
				c-0.815-1.625,0.038-2.594,0.137-2.7l0.93-0.978l-1.323-0.249c-1.24-0.225-2.569-0.766-2.686-1.092
				c-0.333-1.335-2.743-1.688-3.972-1.688c-0.859,0-2.023,0.139-2.691,0.804c-1.058,1.058-4.769,3.698-6.011,4.194
				c-0.263,0.106-0.608,0.246-0.765,0.278c-0.107-0.117-0.283-0.407-0.488-0.747c-0.76-1.268-2.09-1.6-3.261-1.896
				c-0.438-0.109-0.851-0.214-1.204-0.355c-0.549-0.219-1.342-1.105-1.668-2.155c-0.146-0.47-0.248-1.139,0.097-1.66
				c1.019-1.526,1.918-2.121,3.208-2.121c1.977,0,4.445-1.299,4.789-3.037c0.196-0.957,0.909-1.361,2.055-1.935l0.282-0.139
				c2.442-1.208,4.739-2.55,5.017-4.204c0.253-1.515-0.293-3.504-0.655-4.822c-0.068-0.245-0.127-0.464-0.172-0.644
				c-0.251-1.007-0.251-4.624-0.251-5.813c0-0.275,0.025-0.587,0.049-0.908c0.014-0.18,0.027-0.359,0.037-0.541
				c0.268,0.189,0.567,0.288,0.88,0.288c0.476,0,0.924-0.229,1.265-0.643c0.455-0.556,0.635-1.357,0.477-2.143
				c-0.227-1.124-0.227-1.124,1.043-1.97c0.414-0.275,0.597-0.297,0.642-0.297c0.065,0,0.169,0.092,0.337,0.246
				c0.256,0.234,0.609,0.555,1.159,0.695c0.351,0.087,0.67,0.125,0.949,0.157c0.664,0.08,1.103,0.132,1.709,0.737
				c0.339,0.341,0.698,0.513,1.072,0.513c0.513,0,0.949-0.34,1.142-0.886c0.28-0.799,0.036-2.082-0.969-2.887
				c-0.665-0.531-0.939-1.252-1.228-2.016c-0.215-0.566-0.438-1.15-0.826-1.664c-0.189-0.253-0.316-0.588-0.45-0.942
				c-0.339-0.896-0.803-2.121-2.671-2.59c-2.129-0.536-2.885-0.789-4.158-1.551c-0.537-0.323-0.996-0.537-1.494-0.537
				c-0.947,0-1.568,0.73-2.696,2.052c-1.046,1.218-1.143,1.731-1.172,2.373c-0.011,0.269-0.022,0.504-0.288,1.033
				c-0.606,1.213-0.477,1.81-0.246,2.463c0.091,0.259,0.169,0.481,0.169,0.859v0.619l0.61,0.102
				c0.025,0.005,0.251,0.039,0.593,0.039c0.641,0,1.88-0.13,2.972-1.006c0.133-0.107,0.236-0.182,0.314-0.235
				c0.007,0.014,0.014,0.03,0.022,0.043c0.117,0.228,0.282,0.54,0.532,0.876c0.397,0.532-0.429,1.715-0.871,2.349
				c-0.091,0.127-0.172,0.245-0.241,0.35c-0.172,0.257-0.264,0.511-0.294,0.757c-0.401-0.004-0.763-0.031-1.114-0.059
				c-0.391-0.031-0.774-0.06-1.198-0.06c-0.502,0-1.002,0.043-1.529,0.13c-2.236,0.372-3.997,1.064-5.236,2.056
				c-0.466,0.372-0.896,0.94-1.351,1.545c-0.943,1.249-2.012,2.663-3.585,2.663c-0.083,0-0.168-0.004-0.255-0.011
				c-2.211-0.205-3.432-1.604-4.239-2.529c-0.18-0.203-0.338-0.384-0.481-0.527c-1.001-1.001-5.28-2.648-7.208-2.927
				c-1.22-0.175-2.228-0.889-3.2-1.578c-0.376-0.265-0.765-0.541-1.156-0.775c-0.274-0.164-2.723-1.596-4.507-1.596
				c-0.91,0-1.385,0.381-1.623,0.701c-0.275,0.365-0.959,0.661-1.622,0.95c-0.482,0.207-0.972,0.421-1.388,0.695
				c-0.044-0.085-0.095-0.169-0.15-0.255c-0.699-1.047-0.594-1.439-0.58-1.479c0.006-0.021,0.029-0.085,0.202-0.142
				c0.475-0.161,0.767-0.54,0.78-1.017c0.027-0.968-1.21-2.068-2.371-2.532c-0.237-0.093-0.467-0.198-0.689-0.3
				c-0.695-0.315-1.411-0.638-2.21-0.638c-0.478,0-0.93,0.113-1.375,0.345c-0.807,0.018-3.54,0.161-4.674,1.295
				c-0.796,0.802-2.758,1.916-4.154,1.916c-0.286,0-0.528-0.047-0.719-0.144c-0.088-0.043-0.288-0.157-0.277-0.256
				c0.044-0.319,0.728-0.95,1.454-1.096l0.323-0.062c1.444-0.276,3.624-0.692,4.792-2.739c0.979-1.71,1.456-3.787,1.456-6.347
				c0-1.307,0.13-2.061,0.311-3.104c0.071-0.417,0.15-0.873,0.23-1.415c0.075-0.522,0.125-1.274-0.293-1.797
				c-0.39-0.487-0.956-0.535-1.371-0.568c-0.175-0.014-0.34-0.028-0.458-0.068c-0.33-0.107-0.771-0.215-1.193-0.307
				c0.375-0.517,0.731-1.229,0.864-2.159c0.291-2.027,0.017-3.554-0.909-5.104c-0.893-1.486-2.602-2.632-2.673-2.68l-1.134-0.756
				v1.362c0,0.019-0.062,1.992-0.901,1.992c-1.449,0-2.613-0.464-3.566-1.419c-1.172-1.172-2.349-1.507-4.132-2.018l-0.26-0.074
				c-1.441-0.409-3.757-1.67-4.644-2.168V95.09v-1.271l-1.096,0.64c-0.135,0.079-3.331,1.943-4.715,3.054
				c-0.649,0.519-1.11,1.165-1.48,1.685c-0.04,0.053-0.081,0.112-0.122,0.171c-0.23-0.645-0.41-1.604-0.481-2.194l-0.081-0.641
				h-0.645c-0.08,0-1.994,0.021-3.554,1.895c-0.741,0.891-1.608,1.443-2.263,1.443c-0.234,0-0.585-0.059-0.923-0.563
				c-0.449-0.675-0.416-1.202-0.381-1.76c0.037-0.57,0.085-1.283-0.527-1.892c-0.884-0.889-2.699-1.846-4.593-1.846
				c-1.452,0-4.153,0-5.343-0.711c-0.214-0.13-0.409-0.252-0.591-0.365c-1.011-0.636-1.74-1.096-3.316-1.096h-6.804
				c-0.35,0-0.793,0.08-1.305,0.17c-0.628,0.114-1.338,0.241-1.975,0.241c-0.661,0-1.09-0.133-1.31-0.41
				c-0.507-0.629-1.181-0.96-1.949-0.96c-0.924,0-1.67,0.481-1.751,0.534l-0.098,0.065l-0.073,0.095
				c-0.021,0.025-0.435,0.562-0.834,1.308l-7.82-0.228c-0.496-0.002-1.561-0.173-1.816-0.683c-0.194-0.39-0.194-0.663-0.194-1.205
				c0-0.592,0-1.405-0.286-2.709c-0.671-2.991-0.221-3.226-0.217-3.229c0.048-0.015,0.115-0.024,0.201-0.024
				c0.124,0,0.25,0.014,0.379,0.027c0.182,0.016,0.366,0.034,0.552,0.034c0.863,0,1.513-0.381,1.985-1.17
				c0.229-0.382,0.686-0.76,1.088-1.094c0.656-0.547,1.275-1.063,1.191-1.808c-0.053-0.456-0.371-0.836-0.944-1.124
				c-0.394-0.195-0.763-0.451-1.118-0.699c-0.66-0.456-1.283-0.887-1.992-0.887c-0.633,0-1.182,0.343-1.637,1.021
				c-1.038,1.564-1.185,3.129-1.203,3.561l-0.496,1.732c-1.323,2.384-2.201,4.388-2.758,7.497c-0.433,2.374-0.37,4.429-0.319,6.08
				c0.016,0.495,0.03,0.959,0.03,1.396c0,0.467-0.034,0.963-0.069,1.444c-0.114,1.606-0.231,3.267,1.169,3.613
				c0.278,0.073,0.507,0.104,0.714,0.104c0.57,0,0.905-0.258,1.087-0.476c0.476-0.572,0.527-1.541,0.178-3.454l-0.062-0.346
				c-0.41-2.247-0.41-2.247,0.152-3.54l0.138-0.32l0.081-0.188c0.197-0.457,0.421-0.98,0.612-1.368
				c0.027,0.075,0.052,0.151,0.077,0.227c0.284,0.85,0.676,2.016,2.078,2.016c0.391,0,0.836-0.096,1.36-0.293
				c1.675-0.627,1.955-0.787,2.675-1.25c0.184-0.118,0.404-0.258,0.709-0.445c0.39-0.232,0.854-0.341,1.455-0.341
				c0.4,0,0.807,0.049,1.198,0.094c0.371,0.044,0.722,0.084,1.052,0.084c0.011,0,0.02,0,0.03,0
				c-0.076,0.518-0.046,0.985,0.093,1.405c0.507,1.518,1.365,3.684,2.956,4.965c0.339,0.269,0.629,0.46,0.871,0.619
				c0.642,0.421,0.642,0.421,0.498,1.43c-0.331,2.354,0.451,4.252,1.901,4.618c0.551,0.136,0.805,1.283,0.805,2.014
				c0,0.835,0.905,1.544,1.953,2.365c0.451,0.354,1.012,0.794,1.17,1.03c0.127,0.191,0.267,0.359,0.401,0.516
				c0.371,0.436,0.393,0.464-0.094,1.076c-0.757,0.944-0.578,1.693-0.404,2.056c0.321,0.669,1.117,1.085,2.081,1.085
				c0.207,0,0.417-0.021,0.624-0.059c-0.039,0.06-0.086,0.124-0.139,0.195c-0.572,0.761-0.431,1.545-0.326,2.12
				c0.111,0.615,0.152,0.956-0.204,1.402c-0.377,0.468-0.697,0.647-1.037,0.837c-0.532,0.297-1.134,0.635-1.536,1.834
				c-0.481,1.442-0.469,2.531,0.038,3.235c0.245,0.341,0.725,0.746,1.62,0.746c0.154,0,0.319-0.011,0.498-0.037
				c0.149-0.022,0.3-0.03,0.448-0.03c0.42,0,0.851,0.067,1.269,0.132c0.413,0.066,0.803,0.127,1.183,0.127
				c1.066,0,1.758-0.528,2.056-1.567c0.449-1.588,0.899-2.786,1.34-3.567c0.125,0.222,0.301,0.588,0.543,1.193
				c0.26,0.647,0.378,1.503-1.058,2.362c-1.435,0.857-1.831,1.521-2.551,2.727l-0.146,0.246c-0.287,0.478-0.432,0.681-0.504,0.759
				c-0.043-0.003-0.081-0.005-0.124-0.006c-0.107-0.008-0.233-0.015-0.381-0.015c-0.203,0-0.529-0.018-0.927-0.04
				c-0.675-0.037-1.513-0.082-2.358-0.082c-0.821,0-1.478,0.044-2.007,0.132c-0.434,0.073-1.004,0.078-1.608,0.085
				c-1.53,0.018-3.436,0.041-4.952,1.124l-1.902,1.365l-1.051,0.754l1.188,0.509c0.171,0.072,1.442,0.608,2.558,0.803
				c-0.146,0.111-0.319,0.236-0.522,0.381c-0.824,0.589-1.284,0.621-1.726,0.651c-0.492,0.034-1.104,0.076-1.696,0.862
				c-1.157,1.551,1.24,3.811,1.732,4.247l0.05,0.044l0.056,0.034l0.322,0.195c1.112,0.667,1.381,0.842,1.535,1.315
				c0.22,0.654,0.694,0.724,0.89,0.724c0.431,0,0.713-0.282,1.073-0.64c0.387-0.388,0.921-0.92,1.744-1.272
				c0.468-0.202,1.107-0.304,1.896-0.304c1.049,0,2.078,0.187,2.544,0.283c0.143,0.285,0.421,1.05,0.255,2.535
				c-0.167,1.496-0.298,1.687-0.612,2.15c-0.176,0.26-0.396,0.582-0.674,1.139c-0.87,1.743-0.992,2.614,0.068,4.03
				c0.339,0.449,0.354,0.585,0.38,0.829c0.03,0.271,0.07,0.641,0.368,1.236c0.435,0.868,1.176,1.366,2.036,1.366
				c0.662,0,1.357-0.286,2.062-0.851c0.286-0.23,0.411-0.242,0.411-0.242c0.075,0.069,0.283,0.536,0.407,0.815
				c0.079,0.181,0.164,0.365,0.252,0.542c0.186,0.372,0.403,0.746,0.619,1.117c0.41,0.704,0.798,1.371,0.956,2
				c0.319,1.275,0.292,2.221,0.101,2.464c-0.011,0.015-0.021,0.027-0.095,0.027c-0.071,0-0.199-0.016-0.404-0.093
				c-0.401-0.15-0.752-0.289-1.069-0.416c-0.971-0.385-1.673-0.664-2.381-0.664c-0.416,0-0.814,0.098-1.214,0.298
				c-0.217,0.11-0.447,0.192-0.661,0.272c-0.595,0.22-1.268,0.469-1.457,1.147c-0.175,0.632,0.211,1.213,0.519,1.596
				c1.076,1.349,1.84,2.371,2.618,4.18c0.169,0.397,0.315,0.757,0.45,1.089c0.533,1.31,0.916,2.257,1.882,3.223
				c0.909,0.905,1.941,1.744,3.328,1.744c0.396,0,0.811-0.071,1.229-0.209c0.238-0.079,0.52-0.117,0.868-0.117
				c0.581,0,1.239,0.106,1.934,0.221c0.751,0.122,1.528,0.249,2.28,0.249c0.258,0,0.494-0.015,0.72-0.044
				c1.613,0.004,4.43,0.199,5.285,0.712c0.386,0.228,0.789,0.393,1.18,0.554c1.109,0.455,2.065,0.845,2.579,2.564
				c0.297,0.993,0.551,1.816,0.764,2.492c-0.702-0.824-1.607-1.779-2.514-2.427c-1.904-1.361-3.804-2.45-5.987-2.175
				c-2.179,0.273-4.356,0-6.255,1.36c-1.903,1.36-4.354,1.902-7.341,1.36c-2.997-0.544-4.899,0.816-6.533-1.091
				c-1.632-1.904-4.079-5.438-5.984-3.263c-1.905,2.174-3.263,3.809-3.539,5.442c-0.272,1.631-1.356,6.257-2.448,8.159
				c-1.087,1.902-0.272,5.714,0.816,7.346c1.092,1.633,1.632,2.175,1.632,4.354c0,2.175,0,4.351,0,4.351s-0.817-2.176-1.902-3.266
				c-1.087-1.085,0,0-2.177-0.545c-2.175-0.541-2.175,0-3.531-1.901c-1.367-1.908-2.452-4.625-4.354-3.267
				c-1.908,1.359-2.722,1.088-2.722,2.995c0,1.9,0,3.262-0.544,4.624c-0.547,1.359,1.084,2.722,2.175,1.088
				c1.092-1.634,1.632-0.274,1.909,2.176c0.268,2.446,0,3.534-1.367,5.168c-1.358,1.632-2.718,2.723-4.62,0.812
				c-1.908-1.902-1.365-3.8-3.812-3.8c-2.446,0-3.809-3.271-2.172-3.813c1.632-0.543,3.532,1.091,4.346-0.543
				c0.821-1.634,1.09-2.721,0-4.624c-1.084-1.908-1.629-4.357-2.444-5.441c-0.818-1.091-2.992,0-2.992-2.449
				c0-2.448,0.539-2.99-1.362-3.538c0,0-2.172-0.813-3.808-0.813c-1.63,0-3.264-0.816-4.352,0.274
				c-1.085,1.088-4.899,0.539-6.531,1.357c-1.63,0.816-6.798,2.991-8.431,2.177c-1.632-0.82-4.622-1.631-6.531-1.09
				c-1.903,0.543-5.983,0-7.614,1.633c-1.632,1.631-4.631,3.808-5.716,5.441c-1.084,1.633-0.815,2.449,0.816,3.534
				c1.632,1.09,1.09,2.177-1.358,1.905c-2.449-0.271-2.449,0-2.996,2.177c-0.538,2.175-0.538,4.352-1.357,6.529
				c-0.812,2.18-1.358,5.714,1.633,6.254c2.993,0.546,7.616-0.27,8.978,0.28c1.356,0.542,0.268,0,0,2.17
				c-0.271,2.177,0,3.808-1.091,4.9c-1.085,1.089,0.545,1.36,0.275,3.538c-0.275,2.173-1.092,0.812-1.632,2.719
				c-0.544,1.902-0.268,2.719,0.272,5.439c0.545,2.719,1.361,6.801,0,9.251c-1.362,2.448-3.262,7.071-4.9,8.974
				c-1.631,1.912-2.446,5.445-2.178,7.891c0.276,2.451-0.815,6.258-0.815,7.346c0,1.083,0,4.357-1.9,3.26
				c-1.903-1.082-3.268-0.54-5.17-1.082c-1.906-0.548-3.264-1.638-4.621-1.095c-1.364,0.548-4.901-0.27-4.901,1.637
				c0,1.9-0.27,3.539,0.546,4.079c0.815,0.545,1.9,1.09,0.27,1.906c-1.632,0.815-1.903,0.544-1.903,2.173
				c0,1.633,0,4.082,1.356,4.629c1.363,0.543,4.9,1.899,6.532,2.446c1.632,0.546,4.353,1.358,4.622,0.272
				c0.276-1.088,1.904-3.535,2.179-1.358c0.274,2.174,1.905,4.895,2.721,5.435c0.815,0.545,1.084,3.271,0,4.629
				c-1.085,1.359-2.447,5.171-1.907,5.983c0.302,0.453,0.851,0.901,1.284,1.214l-0.002,0.001c-0.494,0.392-1.32,0.893-2.472,1.053
				c-1.95,0.281-2.392,1.383-2.749,2.268c-0.075,0.187-0.153,0.383-0.249,0.577c-0.093,0.185-0.124,0.216-0.672,0.251
				c-0.488,0.032-1.159,0.075-1.831,0.578c-0.776,0.583-1.163,1.626-1.537,2.634c-0.22,0.592-0.467,1.264-0.718,1.514
				c-0.577,0.578-1.085,0.602-2.754,0.602c-2.222,0-3.213,1.995-3.636,2.853c-0.094-0.023-0.2-0.04-0.319-0.04
				c-0.689,0-1.11,0.563-1.25,0.747c-0.42,0.559-0.585,1.078-0.499,1.583c0.143,0.854,0.935,1.443,2.034,2.183l0.564,0.371
				c1.353,0.891,2.423,1.593,3.071,2.453c0.185,0.247,0.358,0.442,0.506,0.611c0.124,0.138,0.276,0.308,0.296,0.37
				c-0.001,0.01-0.002,0.153-0.302,0.655c-0.261,0.434-0.465,0.756-0.65,1.049c-0.401,0.63-0.718,1.127-1.283,2.256
				c-0.512,1.033-1.852,2.078-2.467,2.222c-0.416-1.747-1.61-2.012-2.297-2.012c-0.406,0-0.843,0.081-1.339,0.246
				c-1.207,0.402-5.792,2.145-6.814,3.169c-0.49,0.49-1.536,1.18-2.328,1.18c-0.291,0-0.497-0.094-0.664-0.303
				c-0.842-1.047-2.026-1.749-2.949-1.749c-0.634,0-1.124,0.33-1.309,0.879c-0.265,0.8,0.308,1.42,0.77,1.92
				c0.261,0.282,0.619,0.67,0.571,0.86c-0.013,0.055-0.026,0.095-0.037,0.124c-0.146-0.038-0.5-0.195-1.248-0.789
				c-1.217-0.978-2.837-2.107-4.56-2.107c-0.214,0-0.427,0.017-0.635,0.051c-0.565,0.094-1.063,0.143-1.477,0.143
				c-0.85,0-1.375-0.189-1.563-0.561c-0.14-0.283-0.269-0.63-0.394-0.967c-0.375-1.014-0.801-2.162-1.886-2.162
				c-0.46,0-1.993,0.072-2.461,1.012c-0.134,0.268-0.28,0.824,0.243,1.518c0.151,0.201,0.355,0.452,0.581,0.721
				c0.34,0.412,0.976,1.176,1.232,1.649c-1.812-0.014-2.164-0.321-2.479-0.956c-0.321-0.638-0.85-0.999-1.456-0.999
				c-0.774,0-1.551,0.589-2.03,1.539c-0.37,0.741-1.108,0.972-2.732,1.239c-0.964,0.163-1.625,0.675-1.816,1.41
				c-0.22,0.847,0.231,1.819,1.21,2.602c0.834,0.665,1.086,1.246,1.053,1.475c-0.017,0.12-0.186,0.211-0.323,0.267
				c-1.527,0.611-2.174,1.53-2.244,1.632l-0.982,1.463l1.731-0.341c0,0,0.285-0.053,0.706-0.053c0.403,0,1.009,0.049,1.605,0.287
				c0.857,0.345,0.9,0.898,0.9,2.586c0,1.737,0.312,2.687,2.092,3.398l0.454,0.176c0.405,0.157,1.115,0.43,1.392,0.64
				c-0.03,0.031-0.073,0.068-0.129,0.113c-0.757,0.609-1.353,1.088-1.394,1.845c-0.04,0.718,0.439,1.339,1.333,2.233
				c1.666,1.664,2.303,2.599,2.524,3.705c0.15,0.752,0.445,1.239,0.731,1.711c0.315,0.52,0.642,1.059,0.908,2.133
				c0.122,0.489,0.271,0.964,0.417,1.432c0.484,1.546,0.901,2.885,0.182,4.32c-0.718,1.441-0.606,2.707-0.515,3.721
				c0.061,0.683,0.113,1.275-0.069,1.821c-0.209,0.628-0.409,0.771-0.89,1.114c-0.485,0.345-1.147,0.818-1.991,1.941
				c-0.89,1.184-1.538,2.28-2.113,3.248c-0.498,0.845-0.93,1.572-1.411,2.179c-0.387,0.482-2.315,2.988-2.003,4.742
				c0.095,0.533,0.384,0.959,0.834,1.231c0.566,0.336,1.169,0.507,1.8,0.507c0.504,0,0.99-0.107,1.452-0.272l-0.187,0.133
				l0.603,0.609c0,0,0.243,0.263,0.311,0.649c-0.333,0.03-0.809,0.087-1.426,0.334l-0.395,0.154c-1.23,0.478-2.39,0.926-3.248,2.646
				c-0.381,0.756-0.458,0.789-0.715,0.896c-0.263,0.112-0.661,0.279-1.265,0.766c-1.085,0.86-1.695,2.145-2.143,3.083
				c-0.149,0.317-0.284,0.596-0.402,0.795c-0.305-0.107-0.898-0.69-0.898-1.136c0-1.468-0.915-1.584-1.196-1.584
				c-0.436,0-0.929,0.224-1.6,0.729c-1.076,0.801-0.688,1.876-0.406,2.663c0.188,0.528,0.384,1.072,0.384,1.728
				c0,0.4-0.04,0.811-0.079,1.207c-0.092,0.943-0.179,1.834,0.349,2.417c0.282,0.31,0.674,0.466,1.169,0.466
				c0.244,0,0.515-0.037,0.826-0.114c1.188-0.297,1.935-0.333,2.535-0.365c0.479-0.026,0.892-0.047,1.333-0.192
				c0.058-0.021,0.12-0.03,0.178-0.03c0.088,0,0.133,0.022,0.143,0.028c0.006,0.037-0.011,0.306-0.343,0.805
				c-0.719,1.075-0.564,1.872-0.309,2.349c0.408,0.761,1.382,1.234,2.547,1.234c0.435,0,0.533,0.066,0.536,0.069
				c0.094,0.129,0.094,0.79,0.094,1.376c0,0.561,0.108,1.132,0.204,1.634c0.09,0.474,0.227,1.189,0.104,1.367
				c-0.021,0.027-0.101,0.066-0.239,0.088c-0.153,0.026-0.31,0.039-0.488,0.039c-0.32,0-0.643-0.04-0.956-0.081
				c-0.294-0.038-0.574-0.072-0.842-0.072c-0.175,0-0.71,0-1.117,0.374c-0.316,0.29-0.47,0.706-0.47,1.275
				c0,1.847-0.103,2.147-0.783,2.285c-0.967,0.191-1.232,0.682-1.283,1.06c-0.117,0.856,0.834,1.525,1.652,1.934
				c0.26,0.131,0.505,0.222,0.728,0.3c0.15,0.055,0.358,0.13,0.41,0.174c-0.009,0,0.036,0.194-0.151,0.852
				c-0.394,1.38-0.391,2.25,0.013,2.911c0.315,0.516,0.85,0.841,1.634,0.995c0.169,0.034,0.349,0.051,0.533,0.051
				c0.491,0,0.947-0.12,1.347-0.227c0.295-0.077,0.574-0.151,0.779-0.151c0.146,0,0.249,0.018,0.396,0.26
				c0.498,0.833,0.541,0.964,0.749,1.594c0.114,0.339,0.267,0.801,0.546,1.548c0.265,0.708,0.259,1.148,0.254,1.54
				c-0.012,1.04,0.235,1.569,1.808,2.152c0.522,0.198,1.017,0.292,1.509,0.292c0.438,0,0.787-0.077,1.042-0.134
				c0.059-0.011,0.124-0.027,0.181-0.035c0.025,0.048,0.057,0.127,0.098,0.243c0.179,0.541,0.416,0.877,0.594,1.099
				c-0.235,0.235-0.65,0.598-0.924,0.839c-0.829,0.725-1.326,0.914-1.69,1.052c-0.844,0.32-1.184,0.66-1.533,2.045
				c-0.496,1.98-0.01,2.727,0.79,3.64c0.135,0.155,0.279,0.318,0.424,0.512c0.154,0.207,0.249,0.387,0.341,0.564
				c0.227,0.434,0.536,1.029,1.557,1.029c0.364,0,0.846-0.07,1.565-0.23c0.268-0.06,0.524-0.089,0.757-0.089
				c1.31,0,2.036,0.924,2.783,2.422c0.297,0.594,0.651,0.996,0.937,1.32c0.539,0.612,0.683,0.776,0.155,1.836
				c-1.063,2.116-1.567,3.302-0.518,5.055c0.114,0.191,0.264,0.372,0.434,0.552l-0.007,0.034l0.327,0.282l0.001,0l0.93,0.807
				l0.019-0.088c0.183,0.137,0.359,0.28,0.397,0.363c-0.008,0.001-0.033,0.075-0.14,0.21l-0.079,0.098
				c-0.659,0.826-1.229,1.539-1.722,1.539c-0.148,0-0.325-0.06-0.522-0.178c-0.519-0.311-1.03-0.468-1.52-0.468
				c-1.155,0-2.092,0.821-2.789,2.442c-0.407,0.953-1.393,1.292-2.437,1.654c-0.625,0.216-1.215,0.42-1.681,0.771
				c-1.333,0.993-2.311,2.978-1.305,4.987c0.04,0.081,0.112,0.225,0.178,0.365c-0.27,0.117-0.638,0.305-1.067,0.648
				c-0.936,0.744-1.087,1.05-1.193,1.872c-0.047,0.355-0.108,0.84-0.404,1.725c-0.206,0.62-0.474,1.236-0.732,1.829
				c-0.762,1.76-1.55,3.577-0.572,5.294c0.433,0.758,0.785,1.68,1.125,2.57c0.503,1.316,0.977,2.558,1.714,3.3
				c0.259,0.259,0.517,0.477,0.767,0.683c0.78,0.651,1.294,1.081,1.471,2.69c0.265,2.398,1.271,4.091,3.072,5.17
				c0.379,0.226,0.696,0.542,1.031,0.879c0.672,0.671,1.433,1.432,2.747,1.432c0.159,0,0.328-0.011,0.505-0.036
				c0.525-0.076,0.916-0.129,1.18-0.129c0.053,0,0.091,0.003,0.12,0.005c0.023,0.093,0.049,0.303,0.049,0.758
				c0,1.764,1.675,2.905,4.268,2.905c0.847,0,1.56,0.253,1.818,0.645c0.165,0.252,0.152,0.606-0.043,1.057
				c-0.39,0.911-0.364,1.882-0.342,2.739c0.032,1.264,0.015,1.943-0.712,2.361c-0.359,0.204-0.678,0.371-0.962,0.517
				c-1.274,0.662-2.116,1.101-2.39,3.003c-0.06,0.429-0.095,0.807-0.126,1.144c-0.103,1.13-0.15,1.645-1.029,2.52
				c-1.354,1.361-2.322,2.592-2.648,4.184c-0.078,0.396-0.242,0.808-0.416,1.244c-0.169,0.422-0.343,0.857-0.45,1.313l-0.427,1.794
				l1.063-0.703c0.018,0.193,0.054,0.386,0.131,0.577c0.544,1.357,0.544,5.439,2.993,4.076c2.449-1.358,2.449,0.818,3.538,1.36
				c1.085,0.548,3.806,1.635,3.261,2.998c-0.545,1.356,0.273,2.448,1.362,2.993c1.086,0.543,0.816,0.814,0,1.63
				c-0.817,0.815-0.27,1.631,1.086,3.265c1.361,1.634,3.814,3.266,3.814,4.898c0,1.632,0.809,3.534,2.171,2.991
				c1.364-0.541,0,0.544-0.271,2.176c-0.27,1.635,0.545,2.18,2.454,2.448c1.899,0.272,1.628,1.362,2.715,1.362
				c1.089,0,2.448-1.909,2.178-2.997c-0.271-1.086-1.632-2.173-0.543-2.446c1.088-0.269,3.26-1.085,4.623-0.269
				c1.358,0.812,3.267,0.269,4.082,2.172c0.815,1.909,0.815,2.724,1.358,4.353c0.548,1.633,2.449,1.633,2.449,0.275
				c0-1.361,1.085-1.088,2.449,0c1.359,1.083,4.625,2.448,5.982,1.633c1.361-0.817,1.638,0.814,2.994-0.55
				c0.519-0.516,1.028-1.066,1.47-1.557l0.13,0.966l1.057-1.204c0.214-0.242,0.384-0.441,0.491-0.568
				c0.615-0.21,1.894-0.594,2.67-0.594c0.234,0,0.314,0.038,0.314,0.038c0.418,0.278,0.985,0.348,1.582,0.423
				c1.089,0.131,1.556,0.26,1.632,0.715c0.071,0.432,0.054,0.88,0.036,1.351c-0.044,1.12-0.099,2.512,1.369,3.487
				c0.514,0.342,0.983,0.757,1.397,1.123c0.739,0.651,1.273,1.123,1.903,1.123c0.393,0,0.738-0.194,0.974-0.544
				c0.076-0.113,0.16-0.166,0.262-0.166c0.122,0,0.279,0.081,0.34,0.262c0.168,0.503,1.487,3.205,3.28,3.205
				c0.412,0,0.795-0.14,1.14-0.416c0.289-0.23,0.69-0.55,0.809-0.59c-0.022,0.013,0.129,0.085,0.249,0.14
				c0.172,0.082,0.385,0.182,0.66,0.291c0.331,0.13,0.666,0.2,0.993,0.2c0.869,0,1.536-0.456,2.126-0.858
				c0.256-0.174,0.499-0.339,0.746-0.465c0.012-0.005,0.024-0.01,0.033-0.015c0.074,0.071,0.185,0.225,0.269,0.343
				c0.314,0.428,0.742,1.015,1.544,1.338c0.148,0.058,0.29,0.117,0.425,0.172c0.623,0.261,1.211,0.505,1.87,0.505
				c0.671,0,1.296-0.249,1.968-0.784c0.455-0.364,0.773-0.534,1.002-0.534c0.293,0,0.702,0.282,1.353,0.803
				c0.812,0.651,1.953,1.197,2.957,1.68c0.784,0.375,1.522,0.729,1.956,1.055c0.162,0.122,0.321,0.248,0.485,0.377
				c0.995,0.783,2.126,1.675,3.764,1.675c0.768,0,1.901,0.744,2.794,1.513l-0.293,0.35c-1.396,1.551-3.347,3.838-4.006,5.581
				c-0.241,0.648-0.427,1.39-0.625,2.178c-0.405,1.618-0.911,3.631-1.881,3.909c-2.035,0.581-2.972,1.185-4.174,2.689
				c-0.751,0.939-1.471,2.301-2.049,3.398c-0.291,0.552-0.542,1.028-0.712,1.285c-0.452,0.678-2.265,2.528-3.657,3.638
				c-1.583,1.268-3.809,4.48-3.809,7.648c0,2.676-0.673,4.433-2.184,5.692c-1.297,1.077-1.246,2.34-1.203,3.453
				c0.026,0.619,0.05,1.204-0.123,1.809c-0.246,0.855-0.288,2.374-0.334,3.982c-0.044,1.566-0.118,4.192-0.505,4.623l-0.111,0.084
				c-1.077,0.805-2.008,1.503-2.593,3.843c-0.339,1.354-0.895,2.239-1.667,3.46c-0.374,0.592-0.799,1.264-1.252,2.082
				c-0.706,1.267-1.133,2.329-1.475,3.186c-0.32,0.796-0.573,1.431-0.921,1.892c-1.027,1.368-1.774,4.068-1.22,6.583
				c0.442,1.986,1.365,3.586,2.039,4.755c0.188,0.325,0.352,0.61,0.475,0.852c0.413,0.831,0.155,1.864-0.68,2.696
				c-1.136,1.134-1.781,2.806-1.622,4.133c-0.482,0.67-1.53,2.397-1.01,4.195c0.376,1.334,0.376,1.334-0.344,2.376
				c-0.112,0.166-0.24,0.348-0.38,0.558c-1.12,1.683-1.317,3.278-0.616,5.031c0.292,0.723,0.215,0.854-0.266,1.696
				c-0.155,0.268-0.334,0.581-0.528,0.967c-0.615,1.231-1.2,3.689,1.806,6.314c1.418,1.243,1.492,2.287,1.551,3.124
				c0.022,0.322,0.044,0.629,0.137,0.911c0.277,0.827,1.206,1.448,2.162,1.448c0.833,0,1.593-0.45,2.138-1.271
				c0.425-0.638,0.723-0.883,0.872-0.978c-0.006,0.212-0.464,0.801-0.713,1.123c-0.318,0.413-0.647,0.841-0.878,1.304
				c-0.28,0.563-0.236,1.214,0.121,1.791c0.487,0.786,1.426,1.255,2.512,1.255c0.599,0,1.223-0.142,1.855-0.421
				c0.981-0.441,2.25-1.167,3.477-1.869c1.581-0.908,3.746-2.15,4.385-2.15c0.2,0.089,0.43,0.922,0.54,1.32
				c0.255,0.92,0.543,1.963,1.458,2.193c0.525,0.131,1.614,0.143,2.057,0.143c1.125,0,6.845-0.107,8.977-2.242
				c1.441-1.449,5.096-3.214,7.309-3.214c0.711,0,1.147,0.177,1.296,0.534c1.25,3.004,3.773,3.348,5.561,3.348
				c1.092,0,2.393-0.143,4.218-0.467l0.751-0.131l-0.167-0.744c-0.038-0.188-0.337-1.899,1.487-2.712
				c0.395-0.174,0.81-0.264,1.227-0.264c1.216,0,2.171,0.764,2.373,1.062v0.622h0.73c0.783,0,2.34-0.528,2.622-2.521
				c0.067-0.473,0.301-0.856,0.528-1.228c0.302-0.493,0.645-1.056,0.439-1.727c-0.188-0.612-0.765-1.095-1.93-1.626
				c-0.801-0.366-1.457-0.543-2.008-0.543c-1.113,0-1.649,0.703-2.041,1.219c-0.217,0.285-0.422,0.555-0.71,0.728
				c-0.566,0.339-1.332,0.543-2.044,0.543c-0.644,0-1.546-0.162-2.186-0.937c-0.493-0.589-0.653-1.461-0.436-2.339
				c0.172-0.683,0.558-1.249,0.964-1.411c1.474-0.586,1.743-2.059,1.94-3.132c0.04-0.221,0.078-0.436,0.127-0.629
				c0.136-0.162,1.061-0.352,1.614-0.465c0.989-0.201,2.11-0.433,2.981-1.012c0.535-0.358,0.877-0.43,1.072-0.43
				c0.504,0,0.709,0.701,0.794,1.289c0.171,1.185,0.877,1.611,1.483,1.611c0.834,0,1.716-0.803,2.027-2.08
				c1.944,0.761,3.411,1.715,3.42,2.109c-0.421,0.635-0.989,0.915-1.591,1.217c-0.78,0.384-1.664,0.827-2.047,1.974
				c-0.249,0.752-0.025,1.292,0.207,1.615c0.721,0.995,2.384,1.074,2.876,1.074c0.392,0,0.756-0.038,1.052-0.111
				c0.044-0.012,0.083-0.017,0.126-0.017c0.321,0,0.763,0.272,1.152,0.513c0.487,0.296,0.99,0.606,1.541,0.606
				c0.538,0,0.982-0.294,1.186-0.792c0.32-0.772-0.018-1.89-0.822-2.766c0.245,0.096,0.537,0.241,0.877,0.456
				c2.023,1.261,2.036,2.091,1.847,3.043c-0.122,0.609,0.012,1.187,0.376,1.626c0.401,0.494,1.04,0.764,1.796,0.764
				c0.767,0,1.623-0.279,2.471-0.81c1.797-1.124,3.518-1.693,5.121-1.693c0.476,0,0.95,0.052,1.403,0.154
				c2.473,0.554,5.975,1.93,7.45,2.662c0.529,0.262,1.463,0.571,2.647,0.955c2.125,0.697,6.083,1.989,6.529,3.03
				c2.105,4.895,3.843,7.278,5.47,7.507c0.278,0.041,0.561,0.061,0.833,0.061c1.731,0,3.093-0.821,4.567-1.808
				c0.18-0.122,0.374-0.18,0.587-0.18c0.813,0,1.741,0.851,2.001,1.147l0.408,0.467l0.528-0.331l1.878-1.174
				c0.558,0.178,1.682,0.5,2.557,0.5c0.713,0,1.215-0.209,1.495-0.63c0.324-0.481,0.426-1.058,0.448-1.575l0.086,0.01l-0.117-0.924
				c-0.003-0.019-0.006-0.038-0.009-0.056l-0.004-0.029c0.224-1.129,0.761-2.799,1.328-3.228c0.188-0.139,0.483-0.226,0.793-0.226
				c0.428,0,0.82,0.154,0.998,0.391c0.046,0.061,0.189,0.25,0.065,0.686c-0.424,1.486-0.084,2.366,0.277,2.844
				c0.411,0.543,1.07,0.848,1.855,0.848c0.187,0,0.384-0.015,0.593-0.052c0.281-0.049,0.607-0.11,0.959-0.177
				c1.022-0.198,2.293-0.444,3.165-0.444c0.392,0,0.561,0.052,0.617,0.075c0.15,0.238,0.293,0.603,0.445,0.984
				c0.323,0.813,0.728,1.827,1.523,2.619c1.079,1.078,2.734,1.646,3.808,1.646c0.211,0,0.406-0.023,0.581-0.066
				c0.312,0.221,1.018,1.173,1.221,2.216c0.06,0.305,0.119,0.865-0.172,1.153c-0.905,0.911-1.336,1.963-1.213,2.963
				c0.102,0.819,0.58,1.527,1.351,1.992c0.593,0.355,1.373,0.548,2.203,0.548c1.709,0,3.081-0.796,3.495-2.026
				c0.094-0.281,0.223-0.281,0.278-0.281c0.127,0,0.341,0.082,0.523,0.307c0.167,0.207,0.418,0.677,0.238,1.481
				c-0.132,0.606-0.234,1.156-0.327,1.667c-0.261,1.419-0.433,2.359-1.027,2.807c-0.762,0.569-1.103,1.472-0.846,2.239
				c0.225,0.677,0.851,1.086,1.675,1.086c0.275,0,0.577-0.047,0.895-0.136c0.19-0.054,0.402-0.11,0.63-0.171
				c2.171-0.584,5.804-1.561,6.919-4.336c1.018-2.549,3.049-4.264,3.854-4.47c1.076-0.267,1.537-1.394,1.981-2.479
				c0.195-0.478,0.397-0.973,0.644-1.385c0.677-1.132,0.89-3.31,0.467-4.752c-0.212-0.72-0.561-1.207-1.042-1.444
				c-0.767-0.388-1.156-0.585-0.706-2.137c0.128-0.448,0.215-0.848,0.271-1.202c0.361,0.441,0.798,0.79,1.33,0.897
				c0.476,0.096,1.095,0.15,1.699,0.15c1.36,0,3.726-0.256,4.303-1.989c0.107-0.325,0.32-0.696,1.024-0.696
				c0.505,0,1.146,0.203,1.717,0.546c0.684,0.409,1.705,0.798,2.69,1.181c1.073,0.414,2.184,0.841,2.688,1.219
				c0.641,0.487,1.367,0.732,2.156,0.732c0.898,0,1.878-0.311,2.997-0.95c0.257-0.146,0.546-0.224,0.831-0.224
				c0.564,0,0.996,0.285,1.088,0.563c0.117,0.349-0.34,0.738-0.541,0.888c-0.384,0.288-1.287,0.964-1.008,1.799
				c0.274,0.824,1.387,0.892,2.505,0.892c0.255,0,0.513-0.007,0.761-0.011c0.221-0.002,0.433-0.005,0.628-0.005
				c1.076,0,2.032,1.974,2.284,2.984c0.024,0.096,0.045,0.2,0.067,0.314c0.216,1.042,0.616,2.985,3.785,2.985
				c0.224,0,0.462-0.009,0.716-0.029c2.258-0.171,5.098-1.175,7.38-1.982c0.486-0.172,0.962-0.34,1.404-0.491
				c-0.089,0.27-0.13,0.551-0.094,0.834c0.051,0.387,0.264,0.926,1,1.295l0.416,0.211c0.544,0.284,0.937,0.487,1.388,0.487
				c0.818,0,1.309-0.63,2.104-1.742l0.252-0.357c1.13-1.597,1.72-2.363,2.77-2.363c0.115,0,0.237,0.006,0.365,0.023
				c1.833,0.267,2.907,0.527,2.917,0.529l0.904,0.221v-0.929v-1.631v-2.018l-1.097,1.321c0.002-0.017,0.002-0.026,0.005-0.041
				c0.265-2.392,0.433-2.61,1.996-2.61c0.519,0,1.067,0.03,1.646,0.064c0.588,0.034,1.198,0.07,1.784,0.07
				c1.04,0,2.354-0.098,3.281-0.847c1.04-0.824,0.75-1.605,0.577-2.068c-0.155-0.413-0.275-0.743,0.366-1.594
				c1.303-1.738,2.526-1.876,4.378-2.093l0.567-0.069c0.188-0.023,0.39-0.03,0.605-0.03c0.58,0,1.263,0.068,1.985,0.14
				c0.822,0.083,1.671,0.168,2.502,0.168c1.567,0,2.667-0.316,3.459-0.992c1.574-1.346,6.152-2.842,8.068-2.842
				c0.118,0,0.223,0.001,0.31,0.021c0.812,0.13,1.752,0.264,2.695,0.4c0.962,0.137,1.925,0.272,2.747,0.409
				c0.794,0.133,1.409,0.215,2.025,0.215c0.619,0,1.232-0.082,2.025-0.215l0.091-0.015c0.903-0.15,1.556-0.256,1.837-0.883
				c0.294-0.65-0.062-1.341-0.884-2.66l-0.309-0.485c-1.266-1.992-1.651-2.737-0.609-3.78c0.634-0.632,1.143-1.257,1.591-1.808
				c0.498-0.612,0.942-1.156,1.327-1.406c0.038,0.619-0.195,1.942-0.55,2.645c-0.105,0.212-0.421,0.844-0.086,1.379
				c0.136,0.227,0.425,0.494,1.008,0.494c0.573,0,1.468-0.259,2.991-0.865c1.366-0.546,2.939-0.876,4.206-0.876
				c1.208,0,1.812,0.299,1.977,0.571c0.181,0.305,0.365,0.671,0.557,1.054c0.697,1.387,1.564,3.111,3.102,3.621
				c0.256,0.086,0.49,0.177,0.709,0.261c0.554,0.217,1.075,0.42,1.656,0.42c0.87,0,1.639-0.445,2.497-1.448
				c0.321-0.378,0.604-0.731,0.867-1.066c1.04-1.307,1.613-2.032,3.284-2.215l0.606-0.07c0.791-0.092,1.474-0.176,2.027-0.176
				c0.79,0,1.256,0.162,1.667,0.575c0.321,0.323,0.499,0.729,0.702,1.202c0.362,0.837,0.812,1.876,2.247,2.494
				c0.275,0.116,0.432,0.209,0.524,0.273c-0.122,0.142-0.342,0.348-0.515,0.505c-0.16,0.15-0.334,0.308-0.507,0.484
				c-0.48,0.479-0.661,1.141-0.506,1.855c0.289,1.335,1.755,2.775,3.487,3.423c0.884,0.333,1.657,1.133,2.475,1.985
				c0.972,1.01,1.977,2.055,3.309,2.392c2.204,0.549,2.204,0.549,3.576,0.818c0.189,0.043,0.367,0.061,0.534,0.061
				c1.014,0,1.466-0.668,1.865-1.258c0.198-0.29,0.406-0.597,0.709-0.897c1.045-1.048,0.444-2.093,0.085-2.717
				c-0.212-0.366-0.412-0.714-0.412-1.068c0-0.455-0.095-0.885-0.188-1.301c-0.217-0.979-0.388-1.753,0.553-2.854
				c0.169-0.194,0.336-0.384,0.498-0.568c1.39-1.567,2.705-3.05,1.2-5.455c-0.252-0.407-0.516-0.935-0.795-1.492
				c-0.958-1.914-2.149-4.295-4.261-4.295c-0.631,0-1.289,0.221-1.954,0.665c-0.518,0.346-1.893,1.264-2.35,1.264
				c-0.133-0.087-0.355-0.679-0.531-1.156l-0.112-0.303c-0.381-1.018-0.21-1.253,0.297-1.95c0.328-0.446,0.734-1.008,1.063-1.89
				c0.207-0.549,0.623-1.166,1.065-1.815c1.183-1.747,2.656-3.92,1.046-6.451c-0.671-1.053-1.174-2.083-1.618-2.991
				c-0.848-1.743-1.519-3.117-2.847-3.56c-1.408-0.471-2.548-1.905-2.777-3.486c-0.259-1.832-1.564-2.348-2.946-2.889
				c-0.483-0.191-0.984-0.386-1.526-0.659c-0.891-0.447-1.474-1.051-1.684-1.75c-0.194-0.642-0.069-1.382,0.359-2.13
				c0.434-0.758,1.014-1.087,1.748-1.505c0.841-0.475,1.794-1.014,2.588-2.287c0.647-1.035,0.854-1.925,1.004-2.572
				c0.197-0.842,0.256-1.024,0.782-1.201c0.337-0.11,0.714-0.163,1.188-0.163c0.245,0,0.481,0.014,0.705,0.025
				c0.223,0.011,0.434,0.025,0.629,0.025c0.327,0,1.193,0,1.666-0.717c0.559-0.835,3.435-3.892,5.36-4.614
				c1.44-0.539,3.439-0.974,5.202-1.353c0.841-0.185,1.648-0.358,2.342-0.532c2.161-0.542,9.949-4.968,10.596-7.894
				c0.291-1.301,0.291-2.32,0.291-3.218c0-0.856,0-1.597,0.244-2.448c0.532-1.87,1.071-3.492,1.076-3.507l0.079-0.241l-0.084-0.239
				c-0.292-0.801-1.043-3.098-1.043-4.104c0-0.121,0-0.242,0.002-0.341c0.269-0.101,0.688-0.271,1.305-0.687
				c1.043-0.693,1.261-1.053,1.478-1.522c0.093-0.204,0.174-0.38,0.536-0.744c0.015-0.013,0.027-0.025,0.036-0.035
				c0.316,0.356,0.836,0.886,1.909,1.291c0.984,0.368,1.901,0.574,2.708,0.757c0.96,0.214,1.786,0.401,2.282,0.772
				c0.278,0.21,0.629,0.601,0.966,0.985c0.773,0.873,1.577,1.779,2.538,1.779c0.329,0,0.638-0.107,0.912-0.316
				c0.776-0.584,1.026-1.3,1.265-1.993c0.182-0.524,0.371-1.067,0.802-1.718c0.336-0.503,0.627-0.712,0.934-0.933
				c0.721-0.518,1.258-1.028,1.624-2.866c0.163-0.806,0.382-1.562,0.574-2.227c0.472-1.644,0.88-3.063,0.155-4.275
				c-0.233-0.388-0.447-0.656-0.616-0.872c-0.394-0.498-0.539-0.683-0.369-2.21c0.069-0.641,0.16-1.167,0.241-1.633
				c0.226-1.314,0.388-2.266-0.314-3.669c-0.225-0.449-0.407-0.833-0.573-1.178c-0.45-0.942-0.773-1.623-1.408-2.471
				c-0.821-1.102-2.104-3.182-2.339-3.88c-0.169-0.51-0.593-0.802-1.159-0.802c-0.293,0-0.594,0.073-0.94,0.156
				c-0.389,0.092-0.829,0.198-1.282,0.198c-0.146,0-0.295-0.01-0.448-0.036c-1.207-0.201-1.893-0.915-2.717-2.831
				c-0.956-2.225-3.154-2.852-5.094-3.405c-0.19-0.055-0.375-0.081-0.551-0.082c-1.135,0-1.543,1.03-1.786,1.647
				c-0.046,0.116-0.108,0.272-0.163,0.386c-0.052-0.035-0.125-0.087-0.216-0.167c-1.822-1.564-3.667-2.196-4.592-2.504
				c0.037-0.256,0.146-0.664,0.223-0.956c0.272-1.009,0.581-2.152,0.214-3.065c-0.588-1.481-4.272-5.82-5.979-6.154
				c-1.208-0.245-4.341-0.282-5.299-0.287c-0.479-0.445-1.31-1.35-1.464-2.133c-0.351-1.758-2.601-3.523-3.876-4.29
				c-0.659-0.396-0.902-0.951-1.207-1.653c-0.203-0.469-0.414-0.956-0.77-1.427c-1.104-1.48-2.192-2.753-3.326-3.883l-0.254-0.256
				c-1.349-1.358-3.608-3.636-6.489-3.636c-0.433,0-0.871,0.053-1.297,0.16l-0.493,0.126c-1.262,0.319-2.258,0.57-2.973,0.57
				c-0.642,0-1.053-0.17-1.391-1.063c-0.923-2.48-3.914-5.368-6.389-5.368c-0.183,0-0.268-0.06-0.331-0.124
				c-0.531-0.534-0.519-2.383-0.513-3.606c0.006-0.761,0.01-1.42-0.073-1.919c-0.265-1.605-1.838-2.363-2.59-2.637
				c-0.492-1.464-1.896-5.57-2.41-6.347c-0.322-0.477-0.846-0.729-1.308-0.951c-0.785-0.374-0.809-0.466-0.767-0.682
				c0.219-1.068,0.795-3.919-1.079-4.387c-1.503-0.372-3.397-1.168-3.948-1.906c-0.802-1.068-1.021-1.448-0.284-2.374
				c0.985-1.231,2.766-2.254,2.782-2.265l2.388-1.363h-2.749c0.011,0-0.188-0.014-0.261-0.124c-0.084-0.127-0.095-0.474,0.127-1.068
				l0.099-0.265c0.729-1.949,1.002-2.68,2.229-4.151c0.809-0.973,1.593-2.119,1.292-3.252c-0.198-0.75-0.81-1.307-1.872-1.704
				c-1.763-0.664-1.9-1.076-1.909-1.121c-0.008-0.031,0.027-0.166,0.264-0.404c0.512-0.511,0.684-1.169,0.472-1.803
				c-0.343-1.035-1.714-1.921-3.332-2.152c-1.306-0.191-1.662-0.473-2.844-1.403c-0.328-0.257-0.709-0.558-1.174-0.905
				c-0.883-0.663-1.71-1.065-2.439-1.423c-1.098-0.536-1.823-0.89-2.219-1.82c-0.679-1.579-1.733-2.088-2.577-2.496
				c-0.336-0.161-0.654-0.313-0.925-0.519c-0.229-0.171-0.381-0.558-0.418-1.057c-0.058-0.825,0.212-1.643,0.497-1.929
				c0.737-0.734,1.04-2.139,0.689-3.201c-0.291-0.878-0.972-1.435-1.918-1.571c-0.909-0.128-1.257-0.375-1.735-0.716
				c-0.407-0.288-0.868-0.616-1.674-0.885c-0.506-0.169-0.839-0.529-0.867-0.941c-0.028-0.387,0.224-0.746,0.691-0.98
				c0.501-0.249,0.856-0.658,1.02-1.182c0.374-1.184-0.327-2.664-0.647-3.246l-0.094-0.175c0.496-0.307,1.212-0.671,1.842-0.671
				c1.089,0,0.818,2.179,1.636,3.262c0.809,1.091,2.444,0.541,3.261,1.362c0.815,0.819,0.275,1.358,0,2.177
				c-0.268,0.814,0.815,0.276,1.086,1.356c0.275,1.093,1.359,5.173,2.721,1.093c1.36-4.084,1.634-6.258,2.447-6.805
				c0.815-0.541,1.363-2.174,1.363-3.26c0-1.089,2.175-1.906,2.995-2.178c0.812-0.272,1.358-1.901,1.902-2.997
				c0.543-1.084,7.344-2.444,8.43-2.172c1.086,0.271,1.093,0,3.269-1.635c2.171-1.629,4.352-1.902,7.341-0.27
				c2.994,1.633,2.182,1.905,2.182,1.905s2.989-0.548,3.804-2.996c0.818-2.446-0.273-2.987,0.271-4.621
				c0.547-1.631,1.632,0,2.993-0.545c1.358-0.544,2.178-1.086,3.808-0.544c1.632,0.544,2.992-0.272,2.992-2.721
				c0-2.447,1.092-4.895,2.178-4.355c1.085,0.551,2.721,2.181,2.992,0.821c0.275-1.364,0.27-2.181,1.36-3.539
				c1.089-1.362,1.361-2.989,1.361-2.989s-0.272,1.627,1.089,2.721c1.358,1.084,2.173,1.906,2.989,1.084
				c0.817-0.815,1.094-0.543,2.181-2.178c1.088-1.627,1.088-2.176,1.088-3.533c0-1.365-0.819-3.259,0.541-2.991
				c1.361,0.271,2.175,0.549,4.082-0.548c1.901-1.083,2.715-0.269,4.081-0.269c1.358,0,1.633-0.814,3.535-1.359
				c1.908-0.547,2.176,0.545,3.807,0c1.638-0.547,2.722-0.547,2.179-1.906c-0.542-1.362,0-3.802,3.266-4.623
				c3.262-0.819,3.535,0.539,5.981-1.087c2.449-1.63,4.628-2.997,6.261-3.812c1.628-0.816-0.545-0.541,1.358-2.175
				c1.904-1.633,2.452-1.085,4.624-1.633c2.175-0.543,4.351-2.178,1.362-3.261c-2.994-1.091-3.534-1.363-3.534-2.45
				c0-1.089-1.638-0.816-2.181-1.633c-0.541-0.815-0.546-0.815,0-2.721c0.543-1.904,0.274-1.904,2.445-1.631
				c2.181,0.272,2.181,0.272,3.271,1.357c1.089,1.091,1.629,1.364,2.718-0.272c1.086-1.635,2.18-1.635,3.265-0.542
				c1.092,1.088,3.806,1.905,4.352,2.995c0.543,1.085,0.543,2.718-0.271,3.807c-0.815,1.091,0,2.721,1.905,1.632
				c1.903-1.09,2.443,1.358,1.354,2.719c-1.079,1.359-0.539,2.451,1.37,2.723c1.904,0.269,4.351,1.085,4.891,1.901
				c0.54,0.817,3.265,0.274,3.536-2.173c0.271-2.451,0.271-4.081,1.898-5.988c1.645-1.903,1.37-5.17,2.188-7.073
				c0.815-1.901,3.799-10.877,2.984-12.511c-0.815-1.635,0-3.814,0.549-5.711C652.664,370.666,651.031,367.676,649.939,365.496z"/>
		</g>
		<g>
			<path style="fill:#414042;" d="M404.782,134.788c0.072-0.678,0.143-1.2,0.205-1.387c0.028-0.022,0.167-0.101,0.32-0.185
				C405.118,133.76,404.934,134.319,404.782,134.788z"/>
		</g>
	</g>
	<g>
		<path style="fill:#414042;" d="M292.506,756.598c-0.338,0-0.602,0.119-0.787,0.353c-0.184,0.236-0.275,0.588-0.275,1.049v3.328
			c-0.424-0.461-0.855-0.805-1.303-1.027c-0.447-0.223-0.996-0.336-1.645-0.336c-1.125,0-2.029,0.395-2.718,1.182
			c-0.686,0.789-1.032,1.887-1.032,3.293c0,0.67,0.084,1.287,0.262,1.859c0.172,0.572,0.425,1.074,0.763,1.492
			c0.335,0.426,0.732,0.752,1.193,0.982c0.46,0.225,0.959,0.344,1.499,0.344c0.406,0,0.782-0.059,1.125-0.172
			c0.346-0.111,0.664-0.275,0.961-0.496c0.293-0.217,0.591-0.5,0.895-0.844v0.221c0,0.412,0.099,0.732,0.302,0.957
			c0.201,0.223,0.452,0.334,0.761,0.334c0.316,0,0.57-0.111,0.77-0.326c0.198-0.213,0.299-0.535,0.299-0.965v-9.939
			c0-0.428-0.093-0.744-0.275-0.965C293.114,756.705,292.85,756.598,292.506,756.598z M291.028,766.113
			c-0.196,0.428-0.459,0.74-0.787,0.947c-0.326,0.209-0.689,0.313-1.084,0.313c-0.393,0-0.753-0.109-1.082-0.328
			c-0.331-0.217-0.59-0.541-0.779-0.969c-0.191-0.428-0.287-0.949-0.287-1.563c0-0.576,0.092-1.086,0.27-1.518
			c0.18-0.44,0.433-0.777,0.757-1.012c0.323-0.236,0.692-0.352,1.103-0.352c0.398,0,0.763,0.115,1.096,0.346
			c0.335,0.227,0.598,0.557,0.794,0.988c0.193,0.432,0.292,0.947,0.292,1.547C291.32,765.152,291.221,765.688,291.028,766.113z"/>
		<path style="fill:#414042;" d="M303.499,764.836c0.324-0.17,0.49-0.539,0.49-1.105c0-0.609-0.158-1.211-0.473-1.801
			c-0.315-0.588-0.787-1.066-1.416-1.44c-0.631-0.373-1.387-0.557-2.266-0.557c-0.676,0-1.296,0.109-1.85,0.326
			c-0.558,0.217-1.025,0.529-1.404,0.935c-0.381,0.408-0.67,0.898-0.867,1.467c-0.198,0.57-0.299,1.19-0.299,1.852
			c0,1.418,0.406,2.535,1.208,3.361c0.802,0.826,1.927,1.242,3.376,1.242c0.633,0,1.193-0.086,1.68-0.25
			c0.486-0.166,0.893-0.375,1.216-0.621c0.32-0.252,0.559-0.516,0.722-0.787c0.159-0.271,0.238-0.512,0.238-0.715
			c0-0.23-0.072-0.41-0.216-0.535c-0.142-0.125-0.33-0.191-0.56-0.191c-0.215,0-0.381,0.051-0.497,0.148
			c-0.28,0.264-0.509,0.473-0.683,0.629c-0.179,0.152-0.369,0.295-0.579,0.434c-0.21,0.135-0.425,0.234-0.647,0.299
			c-0.223,0.061-0.472,0.094-0.739,0.094c-0.402,0-0.769-0.1-1.101-0.301c-0.336-0.195-0.602-0.492-0.803-0.881
			c-0.202-0.391-0.305-0.842-0.309-1.356h4.409C302.718,765.084,303.176,765.002,303.499,764.836z M297.721,763.809
			c0.072-0.764,0.293-1.338,0.654-1.725c0.36-0.389,0.824-0.58,1.383-0.58c0.59,0,1.064,0.19,1.422,0.574
			c0.364,0.381,0.573,0.959,0.626,1.73H297.721z"/>
		<path style="fill:#414042;" d="M311.795,764.227c-0.444-0.236-1.017-0.44-1.715-0.611c-0.59-0.142-1.051-0.266-1.387-0.363
			c-0.336-0.1-0.603-0.225-0.804-0.375c-0.196-0.152-0.296-0.346-0.296-0.582c0-0.258,0.136-0.475,0.405-0.648
			c0.271-0.174,0.608-0.262,1.015-0.262c0.397,0,0.711,0.066,0.942,0.201c0.233,0.131,0.431,0.307,0.602,0.529
			c0.209,0.262,0.396,0.457,0.558,0.594c0.161,0.129,0.358,0.197,0.592,0.197c0.317,0,0.565-0.084,0.738-0.248
			c0.174-0.166,0.26-0.379,0.26-0.637c0-0.236-0.083-0.477-0.243-0.727c-0.161-0.25-0.398-0.473-0.71-0.676
			c-0.311-0.203-0.7-0.365-1.165-0.49c-0.466-0.119-0.988-0.178-1.574-0.178c-0.742,0-1.375,0.115-1.903,0.359
			c-0.523,0.238-0.923,0.559-1.192,0.959c-0.27,0.402-0.403,0.832-0.403,1.279c0,0.508,0.146,0.932,0.436,1.283
			c0.293,0.344,0.681,0.625,1.17,0.836c0.486,0.211,1.118,0.414,1.893,0.605c0.691,0.166,1.182,0.34,1.483,0.522
			c0.3,0.184,0.452,0.471,0.452,0.869c0,0.256-0.148,0.488-0.438,0.685c-0.285,0.203-0.658,0.305-1.111,0.305
			c-0.554,0-0.994-0.102-1.314-0.301c-0.32-0.197-0.6-0.494-0.828-0.898c-0.115-0.209-0.238-0.371-0.366-0.488
			c-0.126-0.113-0.306-0.172-0.544-0.172c-0.27,0-0.493,0.088-0.67,0.266c-0.175,0.176-0.263,0.389-0.263,0.635
			c0,0.373,0.14,0.748,0.411,1.119c0.275,0.371,0.701,0.682,1.28,0.926c0.577,0.25,1.272,0.377,2.082,0.377
			c0.848,0,1.569-0.119,2.162-0.344c0.589-0.23,1.034-0.564,1.339-1.01c0.303-0.443,0.455-0.977,0.455-1.598
			c0-0.41-0.115-0.779-0.344-1.104C312.573,764.742,312.238,764.465,311.795,764.227z"/>
		<path style="fill:#414042;" d="M316.167,759.951c-0.328,0-0.602,0.109-0.805,0.338c-0.208,0.223-0.31,0.559-0.31,1.006v6.451
			c0,0.439,0.102,0.775,0.31,1.014c0.203,0.236,0.477,0.357,0.805,0.357c0.329,0,0.602-0.119,0.815-0.35
			c0.216-0.23,0.324-0.572,0.324-1.021v-6.518c0-0.398-0.108-0.717-0.324-0.939C316.768,760.06,316.496,759.951,316.167,759.951z"/>
		<path style="fill:#414042;" d="M316.191,756.695c-0.302,0-0.568,0.104-0.796,0.313c-0.23,0.203-0.344,0.465-0.344,0.785
			c0,0.355,0.113,0.627,0.334,0.818c0.224,0.193,0.49,0.291,0.806,0.291c0.302,0,0.564-0.102,0.784-0.295
			c0.222-0.197,0.331-0.467,0.331-0.814c0-0.358-0.114-0.629-0.339-0.818C316.739,756.791,316.481,756.695,316.191,756.695z"/>
		<path style="fill:#414042;" d="M326.842,759.951c-0.305,0-0.551,0.104-0.741,0.322c-0.192,0.213-0.29,0.516-0.29,0.908v0.301
			c-0.403-0.522-0.837-0.904-1.305-1.148c-0.469-0.246-1.022-0.369-1.657-0.369c-0.537,0-1.027,0.096-1.472,0.287
			c-0.449,0.189-0.841,0.469-1.183,0.844c-0.341,0.373-0.604,0.834-0.788,1.379c-0.185,0.547-0.275,1.156-0.275,1.832
			c0,0.91,0.15,1.711,0.455,2.404c0.299,0.695,0.734,1.233,1.301,1.619c0.563,0.385,1.223,0.578,1.975,0.578
			c0.63,0,1.168-0.125,1.622-0.381c0.456-0.252,0.858-0.621,1.204-1.105c-0.013,0.74-0.029,1.275-0.05,1.605
			c-0.022,0.336-0.098,0.645-0.227,0.94c-0.132,0.291-0.356,0.516-0.68,0.68c-0.319,0.164-0.775,0.244-1.357,0.244
			c-0.286,0-0.542-0.027-0.761-0.08c-0.219-0.051-0.41-0.129-0.563-0.238c-0.159-0.109-0.303-0.238-0.43-0.391
			c-0.132-0.148-0.257-0.299-0.377-0.447c-0.248-0.293-0.538-0.439-0.865-0.439c-0.267,0-0.494,0.086-0.68,0.264
			c-0.187,0.172-0.28,0.396-0.28,0.672c0,0.363,0.167,0.715,0.496,1.063c0.329,0.34,0.8,0.621,1.412,0.84
			c0.61,0.217,1.307,0.326,2.082,0.326c0.847,0,1.556-0.086,2.124-0.254c0.57-0.172,1.033-0.434,1.383-0.787
			c0.353-0.354,0.609-0.797,0.767-1.338c0.161-0.541,0.241-1.184,0.241-1.932V761.6c0-0.535-0.071-0.943-0.213-1.223
			C327.564,760.094,327.276,759.951,326.842,759.951z M325.415,766.021c-0.209,0.404-0.481,0.711-0.815,0.91
			c-0.333,0.199-0.686,0.301-1.061,0.301c-0.634,0-1.148-0.234-1.549-0.701c-0.4-0.469-0.599-1.16-0.599-2.074
			c0-0.904,0.194-1.598,0.583-2.088c0.389-0.492,0.903-0.736,1.549-0.736c0.658,0,1.193,0.258,1.598,0.766
			c0.402,0.514,0.607,1.231,0.607,2.148C325.729,765.127,325.623,765.617,325.415,766.021z"/>
		<path style="fill:#414042;" d="M337.816,761.435c-0.229-0.475-0.581-0.84-1.046-1.1c-0.471-0.258-1-0.385-1.596-0.385
			c-0.611,0-1.153,0.121-1.622,0.365c-0.474,0.246-0.904,0.629-1.3,1.152v-0.273c0-0.271-0.049-0.496-0.147-0.685
			c-0.095-0.186-0.226-0.326-0.383-0.42c-0.16-0.092-0.34-0.139-0.535-0.139c-0.328,0-0.584,0.104-0.768,0.314
			c-0.188,0.213-0.282,0.533-0.282,0.963v6.518c0,0.439,0.104,0.775,0.313,1.014c0.211,0.236,0.479,0.357,0.803,0.357
			c0.334,0,0.609-0.119,0.821-0.344c0.21-0.23,0.317-0.572,0.317-1.027v-2.826c0-0.918,0.056-1.547,0.164-1.883
			c0.154-0.42,0.398-0.75,0.727-0.988c0.332-0.238,0.697-0.357,1.1-0.357c0.616,0,1.029,0.199,1.235,0.588
			c0.206,0.396,0.308,0.965,0.308,1.709v3.758c0,0.439,0.105,0.775,0.313,1.014c0.213,0.236,0.483,0.357,0.818,0.357
			c0.332,0,0.598-0.119,0.806-0.35c0.206-0.23,0.309-0.572,0.309-1.021v-4.197c0-0.494-0.021-0.902-0.064-1.223
			C338.061,762.008,337.963,761.713,337.816,761.435z"/>
		<path style="fill:#414042;" d="M348.081,764.836c0.322-0.17,0.484-0.539,0.484-1.105c0-0.609-0.152-1.211-0.469-1.801
			c-0.314-0.588-0.785-1.066-1.417-1.44c-0.632-0.373-1.386-0.557-2.264-0.557c-0.679,0-1.296,0.109-1.85,0.326
			c-0.558,0.217-1.025,0.529-1.404,0.935c-0.38,0.408-0.671,0.898-0.868,1.467c-0.194,0.57-0.299,1.19-0.299,1.852
			c0,1.418,0.405,2.535,1.208,3.361c0.805,0.826,1.926,1.242,3.377,1.242c0.631,0,1.193-0.086,1.682-0.25
			c0.486-0.166,0.891-0.375,1.211-0.621c0.323-0.252,0.563-0.516,0.725-0.787c0.159-0.271,0.238-0.512,0.238-0.715
			c0-0.23-0.072-0.41-0.215-0.535c-0.145-0.125-0.328-0.191-0.561-0.191c-0.214,0-0.381,0.051-0.497,0.148
			c-0.28,0.264-0.509,0.473-0.684,0.629c-0.177,0.152-0.368,0.295-0.578,0.434c-0.21,0.135-0.427,0.234-0.648,0.299
			c-0.224,0.061-0.469,0.094-0.739,0.094c-0.402,0-0.768-0.1-1.101-0.301c-0.334-0.195-0.603-0.492-0.803-0.881
			c-0.202-0.391-0.303-0.842-0.309-1.356h4.409C347.298,765.084,347.754,765.002,348.081,764.836z M342.299,763.809
			c0.078-0.764,0.297-1.338,0.655-1.725c0.36-0.389,0.823-0.58,1.387-0.58c0.587,0,1.062,0.19,1.423,0.574
			c0.359,0.381,0.568,0.959,0.623,1.73H342.299z"/>
		<path style="fill:#414042;" d="M357.707,756.598c-0.345,0-0.603,0.119-0.787,0.353c-0.185,0.236-0.279,0.588-0.279,1.049v3.328
			c-0.424-0.461-0.856-0.805-1.305-1.027c-0.445-0.223-0.988-0.336-1.64-0.336c-1.125,0-2.032,0.395-2.719,1.182
			c-0.688,0.789-1.032,1.887-1.032,3.293c0,0.67,0.088,1.287,0.261,1.859c0.171,0.572,0.431,1.074,0.762,1.492
			c0.337,0.426,0.734,0.752,1.192,0.982c0.461,0.225,0.961,0.344,1.5,0.344c0.405,0,0.783-0.059,1.128-0.172
			c0.343-0.111,0.663-0.275,0.956-0.496c0.297-0.217,0.596-0.5,0.896-0.844v0.221c0,0.412,0.102,0.732,0.303,0.957
			c0.201,0.223,0.456,0.334,0.764,0.334c0.313,0,0.567-0.111,0.768-0.326c0.197-0.213,0.299-0.535,0.299-0.965v-9.939
			c0-0.428-0.091-0.744-0.275-0.965C358.31,756.705,358.049,756.598,357.707,756.598z M356.225,766.113
			c-0.195,0.428-0.458,0.74-0.781,0.947c-0.331,0.209-0.692,0.313-1.09,0.313c-0.389,0-0.751-0.109-1.08-0.328
			c-0.332-0.217-0.59-0.541-0.779-0.969c-0.191-0.428-0.286-0.949-0.286-1.563c0-0.576,0.089-1.086,0.269-1.518
			c0.178-0.44,0.43-0.777,0.754-1.012c0.326-0.236,0.693-0.352,1.109-0.352c0.395,0,0.759,0.115,1.092,0.346
			c0.335,0.227,0.598,0.557,0.793,0.988c0.195,0.432,0.297,0.947,0.297,1.547C356.522,765.152,356.42,765.688,356.225,766.113z"/>
		<path style="fill:#414042;" d="M372.245,760.498c-0.564-0.355-1.221-0.533-1.97-0.533c-0.647,0-1.193,0.115-1.636,0.352
			c-0.44,0.234-0.871,0.568-1.295,1.012v-3.441c0-0.416-0.094-0.734-0.281-0.957c-0.188-0.221-0.453-0.332-0.801-0.332
			c-0.331,0-0.586,0.117-0.77,0.35c-0.187,0.232-0.278,0.58-0.278,1.037v9.842c0,0.428,0.096,0.742,0.283,0.965
			c0.191,0.215,0.447,0.326,0.766,0.326c0.315,0,0.572-0.111,0.777-0.326c0.203-0.223,0.305-0.537,0.305-0.965v-0.221
			c0.249,0.283,0.445,0.502,0.598,0.642c0.151,0.141,0.336,0.281,0.55,0.416c0.214,0.135,0.475,0.244,0.781,0.326
			c0.305,0.084,0.63,0.127,0.976,0.127c0.567,0,1.085-0.119,1.557-0.344c0.471-0.23,0.872-0.555,1.202-0.973
			c0.328-0.416,0.582-0.912,0.757-1.48c0.173-0.57,0.258-1.195,0.258-1.881c0-0.922-0.154-1.725-0.466-2.398
			C373.246,761.367,372.809,760.852,372.245,760.498z M371.148,766.633c-0.413,0.492-0.901,0.74-1.468,0.74
			c-0.666,0-1.202-0.242-1.613-0.723c-0.412-0.482-0.617-1.17-0.617-2.068c0-0.609,0.097-1.139,0.291-1.58
			c0.191-0.445,0.456-0.783,0.791-1.018c0.338-0.236,0.718-0.352,1.148-0.352c0.42,0,0.785,0.115,1.099,0.352
			c0.314,0.234,0.554,0.564,0.726,0.996c0.172,0.43,0.256,0.939,0.256,1.533C371.76,765.434,371.557,766.141,371.148,766.633z"/>
		<path style="fill:#414042;" d="M382.649,760.086c-0.158-0.092-0.32-0.135-0.492-0.135c-0.234,0-0.419,0.039-0.549,0.121
			c-0.129,0.082-0.252,0.244-0.369,0.478c-0.113,0.238-0.244,0.564-0.386,0.984l-1.808,5.16l-1.908-5.549
			c-0.127-0.389-0.274-0.678-0.435-0.887c-0.167-0.207-0.412-0.309-0.737-0.309c-0.186,0-0.366,0.049-0.542,0.147
			c-0.172,0.1-0.309,0.228-0.408,0.394c-0.098,0.164-0.149,0.346-0.149,0.539c0,0.182,0.085,0.473,0.257,0.875l2.773,6.986
			l-0.203,0.504c-0.158,0.365-0.292,0.648-0.411,0.836c-0.116,0.189-0.253,0.324-0.399,0.4c-0.151,0.078-0.353,0.115-0.61,0.115
			c-0.106,0-0.229-0.016-0.372-0.049c-0.116-0.031-0.233-0.051-0.357-0.051c-0.307,0-0.541,0.072-0.695,0.213
			c-0.159,0.141-0.234,0.34-0.234,0.6c0,0.379,0.166,0.639,0.494,0.783c0.33,0.145,0.825,0.215,1.484,0.215
			c0.675,0,1.217-0.103,1.614-0.311c0.401-0.209,0.722-0.504,0.962-0.889c0.246-0.385,0.489-0.914,0.746-1.596l2.938-7.69
			c0.072-0.201,0.133-0.396,0.184-0.59c0.05-0.191,0.084-0.342,0.105-0.445c0-0.17-0.042-0.33-0.129-0.486
			C382.924,760.299,382.805,760.178,382.649,760.086z"/>
		<path style="fill:#414042;" d="M422.874,756.598c-0.743,0-1.329,0.09-1.755,0.283c-0.427,0.189-0.732,0.492-0.908,0.91
			c-0.178,0.414-0.269,0.975-0.269,1.68v0.678h-0.536c-0.755,0-1.132,0.272-1.132,0.807c0,0.244,0.089,0.441,0.273,0.59
			c0.181,0.154,0.438,0.228,0.776,0.228h0.618v5.973c0,0.443,0.107,0.783,0.32,1.016c0.211,0.236,0.475,0.355,0.792,0.355
			c0.338,0,0.612-0.119,0.824-0.355c0.21-0.232,0.318-0.572,0.318-1.016v-5.973h0.554c0.401,0,0.716-0.049,0.946-0.146
			c0.225-0.102,0.34-0.334,0.34-0.705c0-0.514-0.427-0.773-1.286-0.773h-0.554v-0.539c0-0.443,0.058-0.787,0.173-1.027
			c0.117-0.24,0.378-0.357,0.784-0.357c0.15,0,0.331,0.014,0.544,0.047c0.214,0.033,0.366,0.051,0.453,0.051
			c0.189,0,0.351-0.074,0.49-0.223c0.138-0.148,0.207-0.326,0.207-0.537C424.848,756.918,424.189,756.598,422.874,756.598z"/>
		<path style="fill:#414042;" d="M430.726,760.303c-0.447-0.236-0.906-0.352-1.379-0.352c-0.474,0-0.852,0.115-1.134,0.352
			c-0.284,0.238-0.56,0.59-0.832,1.051c-0.019-0.461-0.108-0.813-0.271-1.051c-0.165-0.236-0.433-0.352-0.81-0.352
			c-0.731,0-1.099,0.504-1.099,1.518v6.277c0,0.449,0.104,0.791,0.315,1.021c0.209,0.23,0.474,0.35,0.799,0.35
			c0.331,0,0.604-0.119,0.82-0.344c0.214-0.23,0.321-0.572,0.321-1.027v-1.887c0-0.674,0.02-1.248,0.066-1.719
			c0.044-0.473,0.125-0.877,0.239-1.219c0.113-0.342,0.279-0.6,0.486-0.773c0.208-0.17,0.477-0.258,0.81-0.258
			c0.24,0,0.522,0.051,0.838,0.15c0.314,0.102,0.518,0.154,0.6,0.154c0.22,0,0.421-0.092,0.61-0.268
			c0.194-0.18,0.285-0.406,0.285-0.682C431.392,760.856,431.172,760.541,430.726,760.303z"/>
		<path style="fill:#414042;" d="M439.868,764.836c0.326-0.17,0.486-0.539,0.486-1.105c0-0.609-0.159-1.211-0.472-1.801
			c-0.311-0.588-0.784-1.066-1.415-1.44c-0.631-0.373-1.388-0.557-2.267-0.557c-0.676,0-1.291,0.109-1.849,0.326
			c-0.557,0.217-1.024,0.529-1.406,0.935c-0.379,0.408-0.668,0.898-0.865,1.467c-0.196,0.57-0.3,1.19-0.3,1.852
			c0,1.418,0.405,2.535,1.207,3.361c0.804,0.826,1.928,1.242,3.376,1.242c0.634,0,1.197-0.086,1.68-0.25
			c0.49-0.166,0.896-0.375,1.218-0.621c0.319-0.252,0.559-0.516,0.719-0.787c0.162-0.271,0.24-0.512,0.24-0.715
			c0-0.23-0.069-0.41-0.213-0.535c-0.143-0.125-0.332-0.191-0.559-0.191c-0.215,0-0.384,0.051-0.5,0.148
			c-0.276,0.264-0.509,0.473-0.684,0.629c-0.175,0.152-0.368,0.295-0.581,0.434c-0.207,0.135-0.422,0.234-0.646,0.299
			c-0.223,0.061-0.47,0.094-0.74,0.094c-0.398,0-0.766-0.1-1.102-0.301c-0.335-0.195-0.601-0.492-0.802-0.881
			c-0.198-0.391-0.304-0.842-0.307-1.356h4.407C439.085,765.084,439.54,765.002,439.868,764.836z M434.088,763.809
			c0.078-0.764,0.295-1.338,0.656-1.725c0.358-0.389,0.82-0.58,1.384-0.58c0.588,0,1.063,0.19,1.422,0.574
			c0.363,0.381,0.566,0.959,0.624,1.73H434.088z"/>
		<path style="fill:#414042;" d="M449.915,764.836c0.325-0.17,0.486-0.539,0.486-1.105c0-0.609-0.156-1.211-0.47-1.801
			c-0.313-0.588-0.786-1.066-1.415-1.44c-0.632-0.373-1.386-0.557-2.268-0.557c-0.675,0-1.293,0.109-1.85,0.326
			c-0.557,0.217-1.022,0.529-1.401,0.935c-0.381,0.408-0.669,0.898-0.87,1.467c-0.197,0.57-0.294,1.19-0.294,1.852
			c0,1.418,0.401,2.535,1.203,3.361c0.805,0.826,1.93,1.242,3.379,1.242c0.632,0,1.191-0.086,1.678-0.25
			c0.489-0.166,0.893-0.375,1.217-0.621c0.319-0.252,0.561-0.516,0.724-0.787c0.155-0.271,0.234-0.512,0.234-0.715
			c0-0.23-0.07-0.41-0.213-0.535c-0.144-0.125-0.329-0.191-0.56-0.191c-0.218,0-0.38,0.051-0.495,0.148
			c-0.282,0.264-0.511,0.473-0.686,0.629c-0.175,0.152-0.37,0.295-0.577,0.434c-0.211,0.135-0.427,0.234-0.649,0.299
			c-0.224,0.061-0.471,0.094-0.739,0.094c-0.402,0-0.769-0.1-1.103-0.301c-0.332-0.195-0.601-0.492-0.801-0.881
			c-0.2-0.391-0.303-0.842-0.309-1.356h4.409C449.137,765.084,449.591,765.002,449.915,764.836z M444.136,763.809
			c0.074-0.764,0.299-1.338,0.654-1.725c0.364-0.389,0.822-0.58,1.386-0.58c0.587,0,1.063,0.19,1.423,0.574
			c0.36,0.381,0.569,0.959,0.623,1.73H444.136z"/>
		<path style="fill:#414042;" d="M458.95,760.504c-0.583-0.361-1.223-0.539-1.917-0.539c-0.578,0-1.093,0.123-1.552,0.369
			c-0.454,0.244-0.895,0.627-1.32,1.148v-0.27c0-0.406-0.101-0.721-0.302-0.94c-0.201-0.219-0.462-0.322-0.781-0.322
			c-0.326,0-0.579,0.104-0.77,0.314c-0.182,0.213-0.276,0.533-0.276,0.963v9.727c0,0.488,0.067,0.863,0.205,1.117
			c0.138,0.258,0.418,0.387,0.841,0.387c0.721,0,1.083-0.492,1.083-1.484v-3.391c0.395,0.506,0.813,0.885,1.249,1.141
			c0.44,0.26,0.98,0.393,1.623,0.393c0.535,0,1.035-0.107,1.498-0.322c0.467-0.207,0.867-0.512,1.21-0.906
			c0.343-0.393,0.61-0.881,0.807-1.463c0.195-0.582,0.292-1.217,0.292-1.912c0-0.943-0.168-1.754-0.505-2.443
			C459.994,761.385,459.535,760.863,458.95,760.504z M458.289,766.068c-0.195,0.434-0.448,0.76-0.77,0.977
			c-0.316,0.219-0.665,0.328-1.038,0.328c-0.629,0-1.151-0.248-1.579-0.748c-0.424-0.498-0.634-1.197-0.634-2.092
			c0-0.955,0.211-1.674,0.64-2.164c0.425-0.492,0.953-0.736,1.573-0.736c0.393,0,0.745,0.115,1.068,0.346
			c0.322,0.227,0.575,0.553,0.755,0.98c0.183,0.426,0.272,0.938,0.272,1.531C458.577,765.109,458.479,765.635,458.289,766.068z"/>
		<path style="fill:#414042;" d="M463.762,759.951c-0.33,0-0.597,0.109-0.805,0.338c-0.207,0.223-0.309,0.559-0.309,1.006v6.451
			c0,0.439,0.102,0.775,0.309,1.014c0.208,0.236,0.475,0.357,0.805,0.357c0.331,0,0.601-0.119,0.817-0.35
			c0.216-0.23,0.322-0.572,0.322-1.021v-6.518c0-0.398-0.107-0.717-0.322-0.939C464.363,760.06,464.093,759.951,463.762,759.951z"/>
		<path style="fill:#414042;" d="M463.789,756.695c-0.302,0-0.571,0.104-0.798,0.313c-0.228,0.203-0.342,0.465-0.342,0.785
			c0,0.355,0.113,0.627,0.335,0.818c0.219,0.193,0.49,0.291,0.805,0.291c0.303,0,0.565-0.102,0.785-0.295
			c0.218-0.197,0.328-0.467,0.328-0.814c0-0.358-0.113-0.629-0.338-0.818C464.336,756.791,464.081,756.695,463.789,756.695z"/>
		<path style="fill:#414042;" d="M474.669,766.943l-2.311-3.635l1.196-1.098c0.612-0.549,0.919-0.99,0.919-1.318
			c0-0.271-0.096-0.494-0.282-0.672c-0.189-0.182-0.422-0.27-0.702-0.27c-0.235,0-0.437,0.059-0.605,0.178
			c-0.162,0.125-0.4,0.348-0.715,0.682l-2.534,2.656V758c0-0.461-0.104-0.813-0.307-1.049c-0.204-0.234-0.478-0.353-0.823-0.353
			c-0.36,0-0.636,0.131-0.83,0.392c-0.193,0.26-0.287,0.643-0.287,1.143v9.613c0,0.449,0.1,0.791,0.297,1.021
			c0.199,0.23,0.47,0.35,0.82,0.35c0.294,0,0.558-0.119,0.787-0.355c0.229-0.232,0.343-0.566,0.343-1.002v-1.793l1.222-1.154
			l1.988,3.269c0.253,0.393,0.454,0.658,0.604,0.811c0.148,0.148,0.362,0.225,0.637,0.225c0.316,0,0.576-0.104,0.769-0.313
			c0.197-0.209,0.297-0.486,0.297-0.846c0-0.127-0.039-0.262-0.113-0.4C474.964,767.416,474.84,767.211,474.669,766.943z"/>
		<path style="fill:#414042;" d="M478.396,766.629c-0.345,0-0.64,0.121-0.878,0.365c-0.235,0.238-0.354,0.529-0.354,0.865
			c0,0.397,0.125,0.703,0.372,0.924c0.248,0.223,0.544,0.334,0.884,0.334c0.328,0,0.614-0.111,0.862-0.334
			c0.244-0.225,0.367-0.529,0.367-0.924c0-0.344-0.123-0.631-0.367-0.873C479.035,766.748,478.74,766.629,478.396,766.629z"/>
		<path style="fill:#414042;" d="M489.343,765.344c-0.232,0-0.425,0.068-0.586,0.213c-0.16,0.139-0.308,0.342-0.444,0.594
			c-0.251,0.432-0.534,0.748-0.854,0.959c-0.325,0.209-0.713,0.313-1.163,0.313c-0.333,0-0.646-0.068-0.926-0.193
			c-0.277-0.131-0.522-0.318-0.716-0.57c-0.198-0.25-0.351-0.553-0.457-0.908c-0.104-0.354-0.155-0.746-0.155-1.168
			c0-0.9,0.204-1.615,0.612-2.135c0.406-0.52,0.942-0.781,1.608-0.781c0.462,0,0.845,0.107,1.146,0.315
			c0.301,0.211,0.587,0.523,0.862,0.941c0.153,0.215,0.293,0.371,0.416,0.463c0.124,0.1,0.279,0.148,0.467,0.148
			c0.286,0,0.53-0.094,0.728-0.281c0.204-0.188,0.304-0.416,0.304-0.684c0-0.266-0.09-0.551-0.266-0.856
			c-0.181-0.305-0.44-0.594-0.777-0.865c-0.339-0.268-0.754-0.488-1.24-0.66c-0.487-0.17-1.021-0.254-1.605-0.254
			c-0.94,0-1.75,0.193-2.424,0.582c-0.678,0.385-1.199,0.936-1.557,1.645c-0.356,0.711-0.533,1.529-0.533,2.453
			c0,1.365,0.391,2.455,1.173,3.268c0.779,0.813,1.867,1.215,3.257,1.215c0.658,0,1.247-0.086,1.77-0.26
			c0.52-0.178,0.955-0.41,1.302-0.699c0.34-0.291,0.597-0.596,0.764-0.912c0.169-0.32,0.255-0.621,0.255-0.902
			c0-0.236-0.092-0.455-0.276-0.666C489.848,765.445,489.621,765.344,489.343,765.344z"/>
		<path style="fill:#414042;" d="M499.492,761.221c-0.395-0.408-0.874-0.721-1.43-0.941c-0.556-0.221-1.174-0.328-1.858-0.328
			c-0.67,0-1.283,0.104-1.84,0.322c-0.557,0.219-1.031,0.529-1.42,0.932c-0.391,0.402-0.692,0.883-0.898,1.453
			c-0.213,0.568-0.314,1.193-0.314,1.875c0,0.676,0.102,1.295,0.31,1.855c0.206,0.555,0.509,1.039,0.908,1.449
			c0.398,0.416,0.872,0.725,1.415,0.945c0.545,0.223,1.16,0.334,1.84,0.334c0.69,0,1.307-0.111,1.858-0.326
			c0.552-0.223,1.024-0.535,1.42-0.939c0.396-0.408,0.701-0.893,0.911-1.463c0.207-0.566,0.31-1.186,0.31-1.855
			c0-0.68-0.103-1.297-0.307-1.857C500.189,762.115,499.886,761.629,499.492,761.221z M497.836,766.666
			c-0.406,0.514-0.948,0.771-1.633,0.771c-0.45,0-0.841-0.117-1.176-0.35c-0.332-0.234-0.59-0.572-0.769-1.012
			c-0.178-0.441-0.268-0.953-0.268-1.543c0-0.596,0.09-1.117,0.271-1.563s0.442-0.779,0.775-1.012
			c0.34-0.228,0.727-0.342,1.165-0.342c0.685,0,1.227,0.256,1.633,0.768c0.402,0.514,0.604,1.228,0.604,2.148
			C498.441,765.44,498.239,766.152,497.836,766.666z"/>
		<path style="fill:#414042;" d="M514.964,761.371c-0.223-0.451-0.552-0.799-0.996-1.045c-0.448-0.24-0.978-0.361-1.596-0.361
			c-0.528,0-1.012,0.113-1.444,0.336c-0.438,0.223-0.842,0.566-1.222,1.027c-0.264-0.457-0.601-0.797-1.01-1.025
			c-0.403-0.225-0.892-0.338-1.46-0.338c-0.545,0-1.038,0.113-1.487,0.332c-0.445,0.219-0.862,0.566-1.251,1.031v-0.213
			c0-0.365-0.105-0.646-0.316-0.855c-0.203-0.207-0.461-0.309-0.77-0.309c-0.316,0-0.577,0.107-0.772,0.328
			c-0.197,0.221-0.294,0.543-0.294,0.967v6.447c0,0.471,0.111,0.822,0.326,1.06c0.219,0.242,0.5,0.363,0.839,0.363
			c0.349,0,0.625-0.121,0.838-0.363c0.212-0.238,0.319-0.59,0.319-1.06v-3.047c0-0.943,0.115-1.672,0.35-2.18
			c0.232-0.504,0.718-0.758,1.457-0.758c0.368,0,0.641,0.1,0.809,0.303c0.169,0.199,0.276,0.455,0.314,0.77
			c0.038,0.316,0.06,0.752,0.06,1.32v3.592c0,0.475,0.104,0.828,0.317,1.066c0.21,0.236,0.488,0.357,0.83,0.357
			c0.351,0,0.636-0.121,0.851-0.357c0.213-0.238,0.32-0.592,0.32-1.066v-2.996c0-0.967,0.084-1.635,0.246-2.014
			c0.15-0.299,0.36-0.535,0.624-0.709c0.269-0.18,0.551-0.266,0.85-0.266c0.366,0,0.644,0.098,0.822,0.297
			c0.18,0.197,0.293,0.443,0.337,0.732c0.038,0.295,0.06,0.684,0.06,1.166v3.789c0,0.471,0.11,0.822,0.326,1.06
			c0.218,0.242,0.5,0.363,0.838,0.363c0.353,0,0.637-0.121,0.85-0.357c0.215-0.238,0.322-0.592,0.322-1.066v-4.4
			C515.253,762.416,515.16,761.779,514.964,761.371z"/>
		<path style="fill:#414042;" d="M398.255,755.951c1.02-0.445,2.109-0.602,3.211-0.621c0.967-0.016,1.944,0.074,2.893,0.164
			c0.068-0.264,0.136-0.535,0.202-0.799c-0.915-0.414-1.921-0.566-2.917-0.559c-0.048-0.143-0.096-0.287-0.146-0.434
			c0.759-0.066,1.268-0.973,0.895-1.647c-0.167-0.381-0.54-0.592-0.927-0.625c-0.393-0.031-0.801,0.119-1.025,0.467
			c-0.484,0.615-0.105,1.59,0.633,1.783c0.043,0.156,0.088,0.313,0.134,0.471c-1.135,0.067-2.293,0.32-3.243,0.973
			C398.063,755.398,398.158,755.674,398.255,755.951z"/>
		<path style="fill:#414042;" d="M413.069,757.238c-0.305,0.156-0.361,0.518-0.345,0.826c-0.337,0.33-0.178,0.824-0.216,1.238
			c-0.075,0.231-0.352,0.258-0.544,0.344c-0.267-0.406-0.548-0.795-0.902-1.125l0.001-0.019c-0.386-0.361-0.805-0.69-1.247-0.979
			c-0.357,0.381-0.729,0.752-1.072,1.15c0.676,0.746,1.305,1.541,1.855,2.383c0.38,0.643,0.689,1.32,0.954,2.016
			c0.571-0.291,1.135-0.598,1.703-0.897c-0.299-0.695-0.645-1.377-1.011-2.043c0.254-0.135,0.594-0.27,0.631-0.6
			c0.032-0.363-0.053-0.758,0.17-1.08c0.439,0.291,1.111-0.039,1.118-0.574C414.22,757.326,413.526,756.922,413.069,757.238z"/>
		<path style="fill:#414042;" d="M407.336,757.971c-1.268-1.113-2.909-1.865-4.614-1.856c-0.417-0.004-0.838,0.01-1.256,0.031
			c-1.739,0.1-3.463,0.459-5.061,1.156c-1.868,0.82-3.495,2.279-4.318,4.178c-0.793,1.699-0.783,3.658-0.425,5.467
			c1.983,0.496,3.996,0.939,6.04,1.037c1.253,0.037,2.512,0.07,3.765,0.022c0.763-0.029,1.525-0.088,2.286-0.193
			c2.752-0.363,5.447-1.236,7.848-2.641c0,0-0.329-1.811-1.623-3.787C409.234,760.15,408.428,758.924,407.336,757.971z
			 M400.24,763.82c-0.374,0.541-0.909,0.965-1.525,1.201c-1.159,0.43-2.568,0.139-3.4-0.787c-0.582-0.643-0.929-1.502-0.864-2.371
			c0.043-1.09,0.714-2.098,1.668-2.607c0.726-0.397,1.606-0.467,2.396-0.244c0.332,0.084,0.641,0.24,0.926,0.43
			c0.582,0.416,1.024,1.031,1.215,1.723C400.93,762.051,400.758,763.051,400.24,763.82z M408.586,761.863
			c-0.134,0.924-1.023,1.715-1.97,1.654c-0.551,0.045-1.082-0.217-1.454-0.603c-0.268-0.33-0.489-0.717-0.525-1.15
			c-0.128-0.945,0.536-1.916,1.459-2.143c0.408-0.113,0.831-0.053,1.232,0.041C408.198,759.971,408.768,760.953,408.586,761.863z"/>
		<path style="fill:#414042;" d="M392.112,758.625c-0.805,0.486-1.468,1.172-2.02,1.926c-0.164-0.297-0.209-0.654-0.42-0.924
			c-0.121-0.158-0.334-0.094-0.502-0.098c-0.213,0.023-0.422-0.033-0.624-0.094c0.235-0.332,0.175-0.842-0.188-1.058
			c-0.385-0.273-0.979-0.035-1.083,0.422c-0.16,0.504,0.372,1.008,0.864,0.875c0.263,0.385,0.735,0.324,1.138,0.34
			c0.184,0.313,0.318,0.66,0.553,0.941c-0.432,0.855-0.675,1.807-0.693,2.762c0.551,0.231,1.105,0.467,1.66,0.697
			c0.029-0.6,0.098-1.201,0.191-1.793c0.185-1.293,0.934-2.418,1.82-3.344C392.588,759.047,392.345,758.844,392.112,758.625z"/>
		<path style="fill:#414042;" d="M401.466,768.85c-0.879,0.045-1.76,0.051-2.637,0.012c-1.412-0.072-2.821-0.203-4.201-0.508
			c-0.98-0.199-1.936-0.482-2.898-0.756c0.154,1.23,0.65,2.406,1.359,3.414c0.838,1.178,1.957,2.258,3.35,2.693
			c1.085,0.291,2.382,0.666,4.614,0.629c0.138-0.002,0.275-0.01,0.413-0.014c1.703-0.063,3.367-0.307,4.869-0.943
			c1.043-0.451,2.023-1.063,2.864-1.83c0.728-0.684,1.297-1.539,1.69-2.459c0.382-0.865,0.724-2.42,0.686-3.221
			c-1.995,1.141-4.232,2.127-6.509,2.514C403.881,768.637,402.675,768.783,401.466,768.85z"/>
	</g>
</g>
</svg>
